<?xml version="1.0" encoding="utf-8" standalone="no"?>
<!DOCTYPE svg PUBLIC "-//W3C//DTD SVG 1.1//EN"
  "http://www.w3.org/Graphics/SVG/1.1/DTD/svg11.dtd">
<!-- Created with matplotlib (https://matplotlib.org/) -->
<svg height="548.64pt" version="1.1" viewBox="0 0 548.64 548.64" width="548.64pt" xmlns="http://www.w3.org/2000/svg" xmlns:xlink="http://www.w3.org/1999/xlink">
 <defs>
  <style type="text/css">
*{stroke-linecap:butt;stroke-linejoin:round;}
  </style>
 </defs>
 <g id="figure_1">
  <g id="patch_1">
   <path d="M 0 548.64 
L 548.64 548.64 
L 548.64 0 
L 0 0 
z
" style="fill:#ffffff;"/>
  </g>
  <g id="axes_1">
   <g id="patch_2">
    <path d="M 67.425 502.84 
L 360.08216 502.84 
L 360.08216 14.8 
L 67.425 14.8 
z
" style="fill:#ffffff;"/>
   </g>
   <g id="matplotlib.axis_1">
    <g id="xtick_1">
     <g id="line2d_1">
      <defs>
       <path d="M 0 0 
L 0 3.5 
" id="mb3dac6782d" style="stroke:#000000;stroke-width:0.8;"/>
      </defs>
      <g>
       <use style="stroke:#000000;stroke-width:0.8;" x="67.425" xlink:href="#mb3dac6782d" y="502.84"/>
      </g>
     </g>
     <g id="text_1">
      <!-- 0 -->
      <defs>
       <path d="M 31.78125 66.40625 
Q 24.171875 66.40625 20.328125 58.90625 
Q 16.5 51.421875 16.5 36.375 
Q 16.5 21.390625 20.328125 13.890625 
Q 24.171875 6.390625 31.78125 6.390625 
Q 39.453125 6.390625 43.28125 13.890625 
Q 47.125 21.390625 47.125 36.375 
Q 47.125 51.421875 43.28125 58.90625 
Q 39.453125 66.40625 31.78125 66.40625 
z
M 31.78125 74.21875 
Q 44.046875 74.21875 50.515625 64.515625 
Q 56.984375 54.828125 56.984375 36.375 
Q 56.984375 17.96875 50.515625 8.265625 
Q 44.046875 -1.421875 31.78125 -1.421875 
Q 19.53125 -1.421875 13.0625 8.265625 
Q 6.59375 17.96875 6.59375 36.375 
Q 6.59375 54.828125 13.0625 64.515625 
Q 19.53125 74.21875 31.78125 74.21875 
z
" id="DejaVuSans-48"/>
      </defs>
      <g transform="translate(62.97125 520.477813)scale(0.14 -0.14)">
       <use xlink:href="#DejaVuSans-48"/>
      </g>
     </g>
    </g>
    <g id="xtick_2">
     <g id="line2d_2">
      <g>
       <use style="stroke:#000000;stroke-width:0.8;" x="164.977387" xlink:href="#mb3dac6782d" y="502.84"/>
      </g>
     </g>
     <g id="text_2">
      <!-- 25 -->
      <defs>
       <path d="M 19.1875 8.296875 
L 53.609375 8.296875 
L 53.609375 0 
L 7.328125 0 
L 7.328125 8.296875 
Q 12.9375 14.109375 22.625 23.890625 
Q 32.328125 33.6875 34.8125 36.53125 
Q 39.546875 41.84375 41.421875 45.53125 
Q 43.3125 49.21875 43.3125 52.78125 
Q 43.3125 58.59375 39.234375 62.25 
Q 35.15625 65.921875 28.609375 65.921875 
Q 23.96875 65.921875 18.8125 64.3125 
Q 13.671875 62.703125 7.8125 59.421875 
L 7.8125 69.390625 
Q 13.765625 71.78125 18.9375 73 
Q 24.125 74.21875 28.421875 74.21875 
Q 39.75 74.21875 46.484375 68.546875 
Q 53.21875 62.890625 53.21875 53.421875 
Q 53.21875 48.921875 51.53125 44.890625 
Q 49.859375 40.875 45.40625 35.40625 
Q 44.1875 33.984375 37.640625 27.21875 
Q 31.109375 20.453125 19.1875 8.296875 
z
" id="DejaVuSans-50"/>
       <path d="M 10.796875 72.90625 
L 49.515625 72.90625 
L 49.515625 64.59375 
L 19.828125 64.59375 
L 19.828125 46.734375 
Q 21.96875 47.46875 24.109375 47.828125 
Q 26.265625 48.1875 28.421875 48.1875 
Q 40.625 48.1875 47.75 41.5 
Q 54.890625 34.8125 54.890625 23.390625 
Q 54.890625 11.625 47.5625 5.09375 
Q 40.234375 -1.421875 26.90625 -1.421875 
Q 22.3125 -1.421875 17.546875 -0.640625 
Q 12.796875 0.140625 7.71875 1.703125 
L 7.71875 11.625 
Q 12.109375 9.234375 16.796875 8.0625 
Q 21.484375 6.890625 26.703125 6.890625 
Q 35.15625 6.890625 40.078125 11.328125 
Q 45.015625 15.765625 45.015625 23.390625 
Q 45.015625 31 40.078125 35.4375 
Q 35.15625 39.890625 26.703125 39.890625 
Q 22.75 39.890625 18.8125 39.015625 
Q 14.890625 38.140625 10.796875 36.28125 
z
" id="DejaVuSans-53"/>
      </defs>
      <g transform="translate(156.069887 520.477813)scale(0.14 -0.14)">
       <use xlink:href="#DejaVuSans-50"/>
       <use x="63.623047" xlink:href="#DejaVuSans-53"/>
      </g>
     </g>
    </g>
    <g id="xtick_3">
     <g id="line2d_3">
      <g>
       <use style="stroke:#000000;stroke-width:0.8;" x="262.529773" xlink:href="#mb3dac6782d" y="502.84"/>
      </g>
     </g>
     <g id="text_3">
      <!-- 50 -->
      <g transform="translate(253.622273 520.477813)scale(0.14 -0.14)">
       <use xlink:href="#DejaVuSans-53"/>
       <use x="63.623047" xlink:href="#DejaVuSans-48"/>
      </g>
     </g>
    </g>
    <g id="xtick_4">
     <g id="line2d_4">
      <g>
       <use style="stroke:#000000;stroke-width:0.8;" x="360.08216" xlink:href="#mb3dac6782d" y="502.84"/>
      </g>
     </g>
     <g id="text_4">
      <!-- 75 -->
      <defs>
       <path d="M 8.203125 72.90625 
L 55.078125 72.90625 
L 55.078125 68.703125 
L 28.609375 0 
L 18.3125 0 
L 43.21875 64.59375 
L 8.203125 64.59375 
z
" id="DejaVuSans-55"/>
      </defs>
      <g transform="translate(351.17466 520.477813)scale(0.14 -0.14)">
       <use xlink:href="#DejaVuSans-55"/>
       <use x="63.623047" xlink:href="#DejaVuSans-53"/>
      </g>
     </g>
    </g>
    <g id="text_5">
     <!-- Points labeled after data deletion -->
     <defs>
      <path d="M 9.1875 72.90625 
L 40.375 72.90625 
Q 54.296875 72.90625 61.734375 66.71875 
Q 69.1875 60.546875 69.1875 49.125 
Q 69.1875 37.640625 61.734375 31.46875 
Q 54.296875 25.296875 40.375 25.296875 
L 27.984375 25.296875 
L 27.984375 0 
L 9.1875 0 
z
M 27.984375 59.28125 
L 27.984375 38.921875 
L 38.375 38.921875 
Q 43.84375 38.921875 46.828125 41.578125 
Q 49.8125 44.234375 49.8125 49.125 
Q 49.8125 54 46.828125 56.640625 
Q 43.84375 59.28125 38.375 59.28125 
z
" id="DejaVuSans-Bold-80"/>
      <path d="M 34.421875 43.5 
Q 28.609375 43.5 25.5625 39.328125 
Q 22.515625 35.15625 22.515625 27.296875 
Q 22.515625 19.4375 25.5625 15.25 
Q 28.609375 11.078125 34.421875 11.078125 
Q 40.140625 11.078125 43.15625 15.25 
Q 46.1875 19.4375 46.1875 27.296875 
Q 46.1875 35.15625 43.15625 39.328125 
Q 40.140625 43.5 34.421875 43.5 
z
M 34.421875 56 
Q 48.53125 56 56.46875 48.375 
Q 64.40625 40.765625 64.40625 27.296875 
Q 64.40625 13.8125 56.46875 6.1875 
Q 48.53125 -1.421875 34.421875 -1.421875 
Q 20.265625 -1.421875 12.28125 6.1875 
Q 4.296875 13.8125 4.296875 27.296875 
Q 4.296875 40.765625 12.28125 48.375 
Q 20.265625 56 34.421875 56 
z
" id="DejaVuSans-Bold-111"/>
      <path d="M 8.40625 54.6875 
L 25.875 54.6875 
L 25.875 0 
L 8.40625 0 
z
M 8.40625 75.984375 
L 25.875 75.984375 
L 25.875 61.71875 
L 8.40625 61.71875 
z
" id="DejaVuSans-Bold-105"/>
      <path d="M 63.375 33.296875 
L 63.375 0 
L 45.796875 0 
L 45.796875 5.421875 
L 45.796875 25.484375 
Q 45.796875 32.5625 45.484375 35.25 
Q 45.171875 37.9375 44.390625 39.203125 
Q 43.359375 40.921875 41.59375 41.875 
Q 39.84375 42.828125 37.59375 42.828125 
Q 32.125 42.828125 29 38.59375 
Q 25.875 34.375 25.875 26.90625 
L 25.875 0 
L 8.40625 0 
L 8.40625 54.6875 
L 25.875 54.6875 
L 25.875 46.6875 
Q 29.828125 51.46875 34.265625 53.734375 
Q 38.71875 56 44.09375 56 
Q 53.5625 56 58.46875 50.1875 
Q 63.375 44.390625 63.375 33.296875 
z
" id="DejaVuSans-Bold-110"/>
      <path d="M 27.484375 70.21875 
L 27.484375 54.6875 
L 45.515625 54.6875 
L 45.515625 42.1875 
L 27.484375 42.1875 
L 27.484375 19 
Q 27.484375 15.1875 29 13.84375 
Q 30.515625 12.5 35.015625 12.5 
L 44 12.5 
L 44 0 
L 29 0 
Q 18.65625 0 14.328125 4.3125 
Q 10.015625 8.640625 10.015625 19 
L 10.015625 42.1875 
L 1.3125 42.1875 
L 1.3125 54.6875 
L 10.015625 54.6875 
L 10.015625 70.21875 
z
" id="DejaVuSans-Bold-116"/>
      <path d="M 51.125 52.984375 
L 51.125 39.703125 
Q 45.515625 42.046875 40.28125 43.21875 
Q 35.0625 44.390625 30.421875 44.390625 
Q 25.4375 44.390625 23.015625 43.140625 
Q 20.609375 41.890625 20.609375 39.3125 
Q 20.609375 37.203125 22.4375 36.078125 
Q 24.265625 34.96875 29 34.421875 
L 32.078125 33.984375 
Q 45.515625 32.28125 50.140625 28.375 
Q 54.78125 24.46875 54.78125 16.109375 
Q 54.78125 7.375 48.328125 2.96875 
Q 41.890625 -1.421875 29.109375 -1.421875 
Q 23.6875 -1.421875 17.890625 -0.5625 
Q 12.109375 0.296875 6 2 
L 6 15.28125 
Q 11.234375 12.75 16.71875 11.46875 
Q 22.21875 10.203125 27.875 10.203125 
Q 33.015625 10.203125 35.59375 11.609375 
Q 38.1875 13.03125 38.1875 15.828125 
Q 38.1875 18.171875 36.40625 19.3125 
Q 34.625 20.453125 29.296875 21.09375 
L 26.21875 21.484375 
Q 14.546875 22.953125 9.859375 26.90625 
Q 5.171875 30.859375 5.171875 38.921875 
Q 5.171875 47.609375 11.125 51.796875 
Q 17.09375 56 29.390625 56 
Q 34.234375 56 39.546875 55.265625 
Q 44.875 54.546875 51.125 52.984375 
z
" id="DejaVuSans-Bold-115"/>
      <path id="DejaVuSans-Bold-32"/>
      <path d="M 8.40625 75.984375 
L 25.875 75.984375 
L 25.875 0 
L 8.40625 0 
z
" id="DejaVuSans-Bold-108"/>
      <path d="M 32.90625 24.609375 
Q 27.4375 24.609375 24.671875 22.75 
Q 21.921875 20.90625 21.921875 17.28125 
Q 21.921875 13.96875 24.140625 12.078125 
Q 26.375 10.203125 30.328125 10.203125 
Q 35.25 10.203125 38.625 13.734375 
Q 42 17.28125 42 22.609375 
L 42 24.609375 
z
M 59.625 31.203125 
L 59.625 0 
L 42 0 
L 42 8.109375 
Q 38.484375 3.125 34.078125 0.84375 
Q 29.6875 -1.421875 23.390625 -1.421875 
Q 14.890625 -1.421875 9.59375 3.53125 
Q 4.296875 8.5 4.296875 16.40625 
Q 4.296875 26.03125 10.90625 30.515625 
Q 17.53125 35.015625 31.6875 35.015625 
L 42 35.015625 
L 42 36.375 
Q 42 40.53125 38.71875 42.453125 
Q 35.453125 44.390625 28.515625 44.390625 
Q 22.90625 44.390625 18.0625 43.265625 
Q 13.234375 42.140625 9.078125 39.890625 
L 9.078125 53.21875 
Q 14.703125 54.59375 20.359375 55.296875 
Q 26.03125 56 31.6875 56 
Q 46.484375 56 53.046875 50.171875 
Q 59.625 44.34375 59.625 31.203125 
z
" id="DejaVuSans-Bold-97"/>
      <path d="M 37.5 11.28125 
Q 43.109375 11.28125 46.0625 15.375 
Q 49.03125 19.484375 49.03125 27.296875 
Q 49.03125 35.109375 46.0625 39.203125 
Q 43.109375 43.3125 37.5 43.3125 
Q 31.890625 43.3125 28.875 39.1875 
Q 25.875 35.0625 25.875 27.296875 
Q 25.875 19.53125 28.875 15.40625 
Q 31.890625 11.28125 37.5 11.28125 
z
M 25.875 46.6875 
Q 29.5 51.46875 33.890625 53.734375 
Q 38.28125 56 44 56 
Q 54.109375 56 60.59375 47.96875 
Q 67.09375 39.9375 67.09375 27.296875 
Q 67.09375 14.65625 60.59375 6.609375 
Q 54.109375 -1.421875 44 -1.421875 
Q 38.28125 -1.421875 33.890625 0.84375 
Q 29.5 3.125 25.875 7.90625 
L 25.875 0 
L 8.40625 0 
L 8.40625 75.984375 
L 25.875 75.984375 
z
" id="DejaVuSans-Bold-98"/>
      <path d="M 62.984375 27.484375 
L 62.984375 22.515625 
L 22.125 22.515625 
Q 22.75 16.359375 26.5625 13.28125 
Q 30.375 10.203125 37.203125 10.203125 
Q 42.71875 10.203125 48.5 11.84375 
Q 54.296875 13.484375 60.40625 16.796875 
L 60.40625 3.328125 
Q 54.203125 0.984375 48 -0.21875 
Q 41.796875 -1.421875 35.59375 -1.421875 
Q 20.75 -1.421875 12.515625 6.125 
Q 4.296875 13.671875 4.296875 27.296875 
Q 4.296875 40.671875 12.375 48.328125 
Q 20.453125 56 34.625 56 
Q 47.515625 56 55.25 48.234375 
Q 62.984375 40.484375 62.984375 27.484375 
z
M 45.015625 33.296875 
Q 45.015625 38.28125 42.109375 41.328125 
Q 39.203125 44.390625 34.515625 44.390625 
Q 29.4375 44.390625 26.265625 41.53125 
Q 23.09375 38.671875 22.3125 33.296875 
z
" id="DejaVuSans-Bold-101"/>
      <path d="M 45.609375 46.6875 
L 45.609375 75.984375 
L 63.1875 75.984375 
L 63.1875 0 
L 45.609375 0 
L 45.609375 7.90625 
Q 42 3.078125 37.640625 0.828125 
Q 33.296875 -1.421875 27.59375 -1.421875 
Q 17.484375 -1.421875 10.984375 6.609375 
Q 4.5 14.65625 4.5 27.296875 
Q 4.5 39.9375 10.984375 47.96875 
Q 17.484375 56 27.59375 56 
Q 33.25 56 37.625 53.734375 
Q 42 51.46875 45.609375 46.6875 
z
M 34.078125 11.28125 
Q 39.703125 11.28125 42.65625 15.375 
Q 45.609375 19.484375 45.609375 27.296875 
Q 45.609375 35.109375 42.65625 39.203125 
Q 39.703125 43.3125 34.078125 43.3125 
Q 28.515625 43.3125 25.5625 39.203125 
Q 22.609375 35.109375 22.609375 27.296875 
Q 22.609375 19.484375 25.5625 15.375 
Q 28.515625 11.28125 34.078125 11.28125 
z
" id="DejaVuSans-Bold-100"/>
      <path d="M 44.390625 75.984375 
L 44.390625 64.5 
L 34.71875 64.5 
Q 31 64.5 29.53125 63.15625 
Q 28.078125 61.8125 28.078125 58.5 
L 28.078125 54.6875 
L 43.015625 54.6875 
L 43.015625 42.1875 
L 28.078125 42.1875 
L 28.078125 0 
L 10.59375 0 
L 10.59375 42.1875 
L 1.90625 42.1875 
L 1.90625 54.6875 
L 10.59375 54.6875 
L 10.59375 58.5 
Q 10.59375 67.4375 15.578125 71.703125 
Q 20.5625 75.984375 31 75.984375 
z
" id="DejaVuSans-Bold-102"/>
      <path d="M 49.03125 39.796875 
Q 46.734375 40.875 44.453125 41.375 
Q 42.1875 41.890625 39.890625 41.890625 
Q 33.15625 41.890625 29.515625 37.5625 
Q 25.875 33.25 25.875 25.203125 
L 25.875 0 
L 8.40625 0 
L 8.40625 54.6875 
L 25.875 54.6875 
L 25.875 45.703125 
Q 29.25 51.078125 33.609375 53.53125 
Q 37.984375 56 44.09375 56 
Q 44.96875 56 45.984375 55.921875 
Q 47.015625 55.859375 48.96875 55.609375 
z
" id="DejaVuSans-Bold-114"/>
     </defs>
     <g transform="translate(80.568736 538.027187)scale(0.14 -0.14)">
      <use xlink:href="#DejaVuSans-Bold-80"/>
      <use x="73.291016" xlink:href="#DejaVuSans-Bold-111"/>
      <use x="141.992188" xlink:href="#DejaVuSans-Bold-105"/>
      <use x="176.269531" xlink:href="#DejaVuSans-Bold-110"/>
      <use x="247.460938" xlink:href="#DejaVuSans-Bold-116"/>
      <use x="295.263672" xlink:href="#DejaVuSans-Bold-115"/>
      <use x="354.785156" xlink:href="#DejaVuSans-Bold-32"/>
      <use x="389.599609" xlink:href="#DejaVuSans-Bold-108"/>
      <use x="423.876953" xlink:href="#DejaVuSans-Bold-97"/>
      <use x="491.357422" xlink:href="#DejaVuSans-Bold-98"/>
      <use x="562.939453" xlink:href="#DejaVuSans-Bold-101"/>
      <use x="630.761719" xlink:href="#DejaVuSans-Bold-108"/>
      <use x="665.039062" xlink:href="#DejaVuSans-Bold-101"/>
      <use x="732.861328" xlink:href="#DejaVuSans-Bold-100"/>
      <use x="804.443359" xlink:href="#DejaVuSans-Bold-32"/>
      <use x="839.257812" xlink:href="#DejaVuSans-Bold-97"/>
      <use x="906.738281" xlink:href="#DejaVuSans-Bold-102"/>
      <use x="950.244141" xlink:href="#DejaVuSans-Bold-116"/>
      <use x="998.046875" xlink:href="#DejaVuSans-Bold-101"/>
      <use x="1065.869141" xlink:href="#DejaVuSans-Bold-114"/>
      <use x="1115.185547" xlink:href="#DejaVuSans-Bold-32"/>
      <use x="1150" xlink:href="#DejaVuSans-Bold-100"/>
      <use x="1221.582031" xlink:href="#DejaVuSans-Bold-97"/>
      <use x="1289.0625" xlink:href="#DejaVuSans-Bold-116"/>
      <use x="1336.865234" xlink:href="#DejaVuSans-Bold-97"/>
      <use x="1404.345703" xlink:href="#DejaVuSans-Bold-32"/>
      <use x="1439.160156" xlink:href="#DejaVuSans-Bold-100"/>
      <use x="1510.742188" xlink:href="#DejaVuSans-Bold-101"/>
      <use x="1578.564453" xlink:href="#DejaVuSans-Bold-108"/>
      <use x="1612.841797" xlink:href="#DejaVuSans-Bold-101"/>
      <use x="1680.664062" xlink:href="#DejaVuSans-Bold-116"/>
      <use x="1728.466797" xlink:href="#DejaVuSans-Bold-105"/>
      <use x="1762.744141" xlink:href="#DejaVuSans-Bold-111"/>
      <use x="1831.445312" xlink:href="#DejaVuSans-Bold-110"/>
     </g>
    </g>
   </g>
   <g id="matplotlib.axis_2">
    <g id="ytick_1">
     <g id="line2d_5">
      <defs>
       <path d="M 0 0 
L -3.5 0 
" id="m5b2c7651d5" style="stroke:#000000;stroke-width:0.8;"/>
      </defs>
      <g>
       <use style="stroke:#000000;stroke-width:0.8;" x="67.425" xlink:href="#m5b2c7651d5" y="502.84"/>
      </g>
     </g>
     <g id="text_6">
      <!-- 76% -->
      <defs>
       <path d="M 33.015625 40.375 
Q 26.375 40.375 22.484375 35.828125 
Q 18.609375 31.296875 18.609375 23.390625 
Q 18.609375 15.53125 22.484375 10.953125 
Q 26.375 6.390625 33.015625 6.390625 
Q 39.65625 6.390625 43.53125 10.953125 
Q 47.40625 15.53125 47.40625 23.390625 
Q 47.40625 31.296875 43.53125 35.828125 
Q 39.65625 40.375 33.015625 40.375 
z
M 52.59375 71.296875 
L 52.59375 62.3125 
Q 48.875 64.0625 45.09375 64.984375 
Q 41.3125 65.921875 37.59375 65.921875 
Q 27.828125 65.921875 22.671875 59.328125 
Q 17.53125 52.734375 16.796875 39.40625 
Q 19.671875 43.65625 24.015625 45.921875 
Q 28.375 48.1875 33.59375 48.1875 
Q 44.578125 48.1875 50.953125 41.515625 
Q 57.328125 34.859375 57.328125 23.390625 
Q 57.328125 12.15625 50.6875 5.359375 
Q 44.046875 -1.421875 33.015625 -1.421875 
Q 20.359375 -1.421875 13.671875 8.265625 
Q 6.984375 17.96875 6.984375 36.375 
Q 6.984375 53.65625 15.1875 63.9375 
Q 23.390625 74.21875 37.203125 74.21875 
Q 40.921875 74.21875 44.703125 73.484375 
Q 48.484375 72.75 52.59375 71.296875 
z
" id="DejaVuSans-54"/>
       <path d="M 72.703125 32.078125 
Q 68.453125 32.078125 66.03125 28.46875 
Q 63.625 24.859375 63.625 18.40625 
Q 63.625 12.0625 66.03125 8.421875 
Q 68.453125 4.78125 72.703125 4.78125 
Q 76.859375 4.78125 79.265625 8.421875 
Q 81.6875 12.0625 81.6875 18.40625 
Q 81.6875 24.8125 79.265625 28.4375 
Q 76.859375 32.078125 72.703125 32.078125 
z
M 72.703125 38.28125 
Q 80.421875 38.28125 84.953125 32.90625 
Q 89.5 27.546875 89.5 18.40625 
Q 89.5 9.28125 84.9375 3.921875 
Q 80.375 -1.421875 72.703125 -1.421875 
Q 64.890625 -1.421875 60.34375 3.921875 
Q 55.8125 9.28125 55.8125 18.40625 
Q 55.8125 27.59375 60.375 32.9375 
Q 64.9375 38.28125 72.703125 38.28125 
z
M 22.3125 68.015625 
Q 18.109375 68.015625 15.6875 64.375 
Q 13.28125 60.75 13.28125 54.390625 
Q 13.28125 47.953125 15.671875 44.328125 
Q 18.0625 40.71875 22.3125 40.71875 
Q 26.5625 40.71875 28.96875 44.328125 
Q 31.390625 47.953125 31.390625 54.390625 
Q 31.390625 60.6875 28.953125 64.34375 
Q 26.515625 68.015625 22.3125 68.015625 
z
M 66.40625 74.21875 
L 74.21875 74.21875 
L 28.609375 -1.421875 
L 20.796875 -1.421875 
z
M 22.3125 74.21875 
Q 30.03125 74.21875 34.609375 68.875 
Q 39.203125 63.53125 39.203125 54.390625 
Q 39.203125 45.171875 34.640625 39.84375 
Q 30.078125 34.515625 22.3125 34.515625 
Q 14.546875 34.515625 10.03125 39.859375 
Q 5.515625 45.21875 5.515625 54.390625 
Q 5.515625 63.484375 10.046875 68.84375 
Q 14.59375 74.21875 22.3125 74.21875 
z
" id="DejaVuSans-37"/>
      </defs>
      <g transform="translate(29.307813 508.158906)scale(0.14 -0.14)">
       <use xlink:href="#DejaVuSans-55"/>
       <use x="63.623047" xlink:href="#DejaVuSans-54"/>
       <use x="127.246094" xlink:href="#DejaVuSans-37"/>
      </g>
     </g>
    </g>
    <g id="ytick_2">
     <g id="line2d_6">
      <g>
       <use style="stroke:#000000;stroke-width:0.8;" x="67.425" xlink:href="#m5b2c7651d5" y="340.16"/>
      </g>
     </g>
     <g id="text_7">
      <!-- 78% -->
      <defs>
       <path d="M 31.78125 34.625 
Q 24.75 34.625 20.71875 30.859375 
Q 16.703125 27.09375 16.703125 20.515625 
Q 16.703125 13.921875 20.71875 10.15625 
Q 24.75 6.390625 31.78125 6.390625 
Q 38.8125 6.390625 42.859375 10.171875 
Q 46.921875 13.96875 46.921875 20.515625 
Q 46.921875 27.09375 42.890625 30.859375 
Q 38.875 34.625 31.78125 34.625 
z
M 21.921875 38.8125 
Q 15.578125 40.375 12.03125 44.71875 
Q 8.5 49.078125 8.5 55.328125 
Q 8.5 64.0625 14.71875 69.140625 
Q 20.953125 74.21875 31.78125 74.21875 
Q 42.671875 74.21875 48.875 69.140625 
Q 55.078125 64.0625 55.078125 55.328125 
Q 55.078125 49.078125 51.53125 44.71875 
Q 48 40.375 41.703125 38.8125 
Q 48.828125 37.15625 52.796875 32.3125 
Q 56.78125 27.484375 56.78125 20.515625 
Q 56.78125 9.90625 50.3125 4.234375 
Q 43.84375 -1.421875 31.78125 -1.421875 
Q 19.734375 -1.421875 13.25 4.234375 
Q 6.78125 9.90625 6.78125 20.515625 
Q 6.78125 27.484375 10.78125 32.3125 
Q 14.796875 37.15625 21.921875 38.8125 
z
M 18.3125 54.390625 
Q 18.3125 48.734375 21.84375 45.5625 
Q 25.390625 42.390625 31.78125 42.390625 
Q 38.140625 42.390625 41.71875 45.5625 
Q 45.3125 48.734375 45.3125 54.390625 
Q 45.3125 60.0625 41.71875 63.234375 
Q 38.140625 66.40625 31.78125 66.40625 
Q 25.390625 66.40625 21.84375 63.234375 
Q 18.3125 60.0625 18.3125 54.390625 
z
" id="DejaVuSans-56"/>
      </defs>
      <g transform="translate(29.307813 345.478906)scale(0.14 -0.14)">
       <use xlink:href="#DejaVuSans-55"/>
       <use x="63.623047" xlink:href="#DejaVuSans-56"/>
       <use x="127.246094" xlink:href="#DejaVuSans-37"/>
      </g>
     </g>
    </g>
    <g id="ytick_3">
     <g id="line2d_7">
      <g>
       <use style="stroke:#000000;stroke-width:0.8;" x="67.425" xlink:href="#m5b2c7651d5" y="177.48"/>
      </g>
     </g>
     <g id="text_8">
      <!-- 80% -->
      <g transform="translate(29.307813 182.798906)scale(0.14 -0.14)">
       <use xlink:href="#DejaVuSans-56"/>
       <use x="63.623047" xlink:href="#DejaVuSans-48"/>
       <use x="127.246094" xlink:href="#DejaVuSans-37"/>
      </g>
     </g>
    </g>
    <g id="ytick_4">
     <g id="line2d_8">
      <g>
       <use style="stroke:#000000;stroke-width:0.8;" x="67.425" xlink:href="#m5b2c7651d5" y="14.8"/>
      </g>
     </g>
     <g id="text_9">
      <!-- 82% -->
      <g transform="translate(29.307813 20.118906)scale(0.14 -0.14)">
       <use xlink:href="#DejaVuSans-56"/>
       <use x="63.623047" xlink:href="#DejaVuSans-50"/>
       <use x="127.246094" xlink:href="#DejaVuSans-37"/>
      </g>
     </g>
    </g>
    <g id="text_10">
     <!-- Model accuracy -->
     <defs>
      <path d="M 9.1875 72.90625 
L 33.109375 72.90625 
L 49.703125 33.890625 
L 66.40625 72.90625 
L 90.28125 72.90625 
L 90.28125 0 
L 72.515625 0 
L 72.515625 53.328125 
L 55.71875 14.015625 
L 43.796875 14.015625 
L 27 53.328125 
L 27 0 
L 9.1875 0 
z
" id="DejaVuSans-Bold-77"/>
      <path d="M 52.59375 52.984375 
L 52.59375 38.71875 
Q 49.03125 41.15625 45.4375 42.328125 
Q 41.84375 43.5 37.984375 43.5 
Q 30.671875 43.5 26.59375 39.234375 
Q 22.515625 34.96875 22.515625 27.296875 
Q 22.515625 19.625 26.59375 15.34375 
Q 30.671875 11.078125 37.984375 11.078125 
Q 42.09375 11.078125 45.78125 12.296875 
Q 49.46875 13.53125 52.59375 15.921875 
L 52.59375 1.609375 
Q 48.484375 0.09375 44.265625 -0.65625 
Q 40.046875 -1.421875 35.796875 -1.421875 
Q 21 -1.421875 12.640625 6.171875 
Q 4.296875 13.765625 4.296875 27.296875 
Q 4.296875 40.828125 12.640625 48.40625 
Q 21 56 35.796875 56 
Q 40.09375 56 44.265625 55.25 
Q 48.4375 54.5 52.59375 52.984375 
z
" id="DejaVuSans-Bold-99"/>
      <path d="M 7.8125 21.296875 
L 7.8125 54.6875 
L 25.390625 54.6875 
L 25.390625 49.21875 
Q 25.390625 44.78125 25.34375 38.0625 
Q 25.296875 31.34375 25.296875 29.109375 
Q 25.296875 22.515625 25.640625 19.609375 
Q 25.984375 16.703125 26.8125 15.375 
Q 27.875 13.671875 29.609375 12.734375 
Q 31.34375 11.8125 33.59375 11.8125 
Q 39.0625 11.8125 42.1875 16.015625 
Q 45.3125 20.21875 45.3125 27.6875 
L 45.3125 54.6875 
L 62.796875 54.6875 
L 62.796875 0 
L 45.3125 0 
L 45.3125 7.90625 
Q 41.359375 3.125 36.9375 0.84375 
Q 32.515625 -1.421875 27.203125 -1.421875 
Q 17.71875 -1.421875 12.765625 4.390625 
Q 7.8125 10.203125 7.8125 21.296875 
z
" id="DejaVuSans-Bold-117"/>
      <path d="M 1.21875 54.6875 
L 18.703125 54.6875 
L 33.40625 17.578125 
L 45.90625 54.6875 
L 63.375 54.6875 
L 40.375 -5.171875 
Q 36.921875 -14.3125 32.296875 -17.9375 
Q 27.6875 -21.578125 20.125 -21.578125 
L 10.015625 -21.578125 
L 10.015625 -10.109375 
L 15.484375 -10.109375 
Q 19.921875 -10.109375 21.9375 -8.6875 
Q 23.96875 -7.28125 25.09375 -3.609375 
L 25.59375 -2.09375 
z
" id="DejaVuSans-Bold-121"/>
     </defs>
     <g transform="translate(22.286875 320.085313)rotate(-90)scale(0.14 -0.14)">
      <use xlink:href="#DejaVuSans-Bold-77"/>
      <use x="99.511719" xlink:href="#DejaVuSans-Bold-111"/>
      <use x="168.212891" xlink:href="#DejaVuSans-Bold-100"/>
      <use x="239.794922" xlink:href="#DejaVuSans-Bold-101"/>
      <use x="307.617188" xlink:href="#DejaVuSans-Bold-108"/>
      <use x="341.894531" xlink:href="#DejaVuSans-Bold-32"/>
      <use x="376.708984" xlink:href="#DejaVuSans-Bold-97"/>
      <use x="444.189453" xlink:href="#DejaVuSans-Bold-99"/>
      <use x="503.466797" xlink:href="#DejaVuSans-Bold-99"/>
      <use x="562.744141" xlink:href="#DejaVuSans-Bold-117"/>
      <use x="633.935547" xlink:href="#DejaVuSans-Bold-114"/>
      <use x="683.251953" xlink:href="#DejaVuSans-Bold-97"/>
      <use x="750.732422" xlink:href="#DejaVuSans-Bold-99"/>
      <use x="810.009766" xlink:href="#DejaVuSans-Bold-121"/>
     </g>
    </g>
   </g>
   <g id="line2d_9">
    <path clip-path="url(#p94bef99886)" d="M 223.508819 502.84 
L 223.508819 14.8 
" style="fill:none;stroke:#808080;stroke-dasharray:1.5,2.475;stroke-dashoffset:0;stroke-opacity:0.5;stroke-width:1.5;"/>
   </g>
   <g id="line2d_10">
    <path clip-path="url(#p94bef99886)" d="M 67.425 309.2508 
L 360.08216 309.2508 
" style="fill:none;stroke:#808080;stroke-dasharray:1.5,2.475;stroke-dashoffset:0;stroke-opacity:0.5;stroke-width:1.5;"/>
   </g>
   <g id="line2d_11">
    <path clip-path="url(#p94bef99886)" d="M 67.425 309.2508 
L 71.327095 466.508133 
L 75.229191 449.697867 
L 79.131286 422.584533 
L 83.033382 428.0072 
L 86.935477 450.240133 
L 90.837573 445.359733 
L 94.739668 438.310267 
L 98.641764 441.563867 
L 102.543859 443.732933 
L 106.445955 446.986533 
L 110.34805 439.3948 
L 114.250146 450.7824 
L 118.152241 454.036 
L 122.054337 436.683467 
L 125.956432 448.613333 
L 129.858527 452.951467 
L 133.760623 443.190667 
L 137.662718 435.598933 
L 141.564814 428.549467 
L 145.466909 419.8732 
L 149.369005 419.330933 
L 153.2711 428.549467 
L 157.173196 419.330933 
L 161.075291 406.8588 
L 164.977387 392.2176 
L 168.879482 369.4424 
L 172.781578 373.780533 
L 176.683673 361.3084 
L 180.585769 338.5332 
L 184.487864 341.244533 
L 188.389959 344.498133 
L 192.292055 337.448667 
L 196.19415 339.617733 
L 200.096246 339.617733 
L 203.998341 327.1456 
L 207.900437 323.892 
L 211.802532 311.419867 
L 215.704628 307.081733 
L 219.606723 301.659067 
L 223.508819 290.813733 
L 227.410914 280.510667 
L 231.31301 284.306533 
L 235.215105 291.898267 
L 239.117201 301.1168 
L 243.019296 300.032267 
L 246.921391 284.8488 
L 250.823487 291.356 
L 254.725582 284.306533 
L 258.627678 279.426133 
L 262.529773 269.665333 
L 266.431869 261.531333 
L 270.333964 255.5664 
L 274.23606 250.143733 
L 278.138155 251.228267 
L 282.040251 244.1788 
L 285.942346 242.009733 
L 289.844442 233.333467 
L 293.746537 215.980933 
L 297.648633 214.354133 
L 301.550728 217.065467 
L 305.452823 218.15 
L 309.354919 206.7624 
L 313.257014 208.3892 
L 317.15911 202.966533 
L 321.061205 205.677867 
L 328.865396 187.2408 
L 332.767492 184.529467 
L 336.669587 180.7336 
L 340.571683 167.7192 
L 344.473778 160.669733 
L 348.375874 161.212 
L 352.277969 156.873867 
L 356.180065 151.4512 
L 360.08216 149.8244 
L 363.984255 144.944 
L 367.886351 137.352267 
L 371.788446 147.113067 
L 375.690542 147.655333 
L 379.592637 142.774933 
L 383.494733 148.1976 
L 387.396828 147.113067 
L 391.298924 135.725467 
L 395.201019 136.267733 
L 399.103115 129.760533 
L 403.00521 129.218267 
L 406.907306 130.3028 
L 410.809401 132.471867 
L 414.711497 125.964667 
L 418.613592 123.253333 
L 422.515687 123.253333 
L 426.417783 118.372933 
L 430.319878 114.577067 
L 434.221974 111.323467 
L 438.124069 112.408 
L 442.026165 102.104933 
L 445.92826 95.055467 
L 449.830356 92.8864 
L 453.732451 96.682267 
L 457.634547 90.175067 
L 461.536642 96.14 
L 465.438738 93.970933 
L 469.340833 89.090533 
L 473.242929 92.344133 
L 477.145024 87.463733 
L 481.047119 85.294667 
L 484.949215 86.921467 
L 488.85131 82.041067 
L 492.753406 76.6184 
L 496.655501 67.942133 
L 500.557597 64.688533 
L 504.459692 56.012267 
L 508.361788 63.604 
L 512.263883 59.808133 
L 516.165979 57.0968 
L 520.068074 59.265867 
L 523.97017 64.688533 
L 527.872265 55.47 
L 531.774361 51.131867 
L 535.676456 52.2164 
L 539.578551 42.997867 
L 547.382742 32.152533 
L 549.64 24.624052 
L 549.64 24.624052 
" style="fill:none;stroke:#545454;stroke-linecap:square;stroke-opacity:0.5;"/>
   </g>
   <g id="line2d_12">
    <path clip-path="url(#p94bef99886)" d="M 75.229191 415.209707 
L 79.131286 443.407573 
L 83.033382 439.177893 
L 86.935477 436.900373 
L 90.837573 440.69624 
L 94.739668 443.841387 
L 98.641764 443.190667 
L 102.543859 441.99768 
L 110.34805 446.986533 
L 114.250146 445.57664 
L 118.152241 445.902 
L 122.054337 448.613333 
L 125.956432 447.094987 
L 129.858527 443.407573 
L 133.760623 441.780773 
L 137.662718 436.032747 
L 141.564814 429.30864 
L 145.466909 426.3804 
L 149.369005 423.1268 
L 153.2711 418.788667 
L 157.173196 413.257547 
L 161.075291 403.27984 
L 164.977387 392.326053 
L 168.879482 380.721547 
L 172.781578 367.056427 
L 176.683673 356.861813 
L 180.585769 351.87296 
L 184.487864 344.606587 
L 188.389959 340.268453 
L 192.292055 340.48536 
L 196.19415 337.665573 
L 200.096246 333.544347 
L 203.998341 328.338587 
L 207.900437 321.831387 
L 211.802532 314.239653 
L 215.704628 306.97328 
L 219.606723 298.297013 
L 223.508819 292.874347 
L 227.410914 289.837653 
L 231.31301 289.7292 
L 235.215105 291.572907 
L 239.117201 292.440533 
L 243.019296 293.850427 
L 246.921391 292.33208 
L 250.823487 287.993947 
L 254.725582 281.92056 
L 258.627678 277.257067 
L 262.529773 270.099147 
L 266.431869 263.266587 
L 270.333964 257.627013 
L 274.23606 252.529707 
L 278.138155 248.625387 
L 282.040251 244.1788 
L 285.942346 237.34624 
L 289.844442 229.971413 
L 293.746537 224.548747 
L 297.648633 219.7768 
L 301.550728 214.462587 
L 305.452823 212.94424 
L 313.257014 208.3892 
L 317.15911 204.051067 
L 321.061205 200.146747 
L 324.963301 195.3748 
L 328.865396 190.928213 
L 332.767492 183.33648 
L 336.669587 176.17856 
L 340.571683 170.9728 
L 344.473778 165.44168 
L 348.375874 159.5852 
L 352.277969 156.00624 
L 356.180065 152.861093 
L 360.08216 148.089147 
L 363.984255 146.136987 
L 367.886351 145.377813 
L 371.788446 143.96792 
L 375.690542 144.61864 
L 379.592637 146.5708 
L 387.396828 142.01576 
L 391.298924 139.41288 
L 395.201019 135.617013 
L 399.103115 132.25496 
L 403.00521 131.60424 
L 406.907306 129.543627 
L 414.711497 127.0492 
L 418.613592 124.663227 
L 422.515687 121.084267 
L 426.417783 118.156027 
L 430.319878 115.98696 
L 434.221974 111.75728 
L 438.124069 107.093787 
L 442.026165 102.755653 
L 445.92826 99.827413 
L 449.830356 95.380827 
L 453.732451 94.18784 
L 457.634547 93.970933 
L 469.340833 91.801867 
L 473.242929 89.6328 
L 481.047119 86.813013 
L 484.949215 83.667867 
L 488.85131 79.763547 
L 492.753406 75.64232 
L 496.655501 69.46048 
L 500.557597 65.773067 
L 504.459692 62.411013 
L 508.361788 60.241947 
L 512.263883 59.157413 
L 516.165979 60.892667 
L 523.97017 57.530613 
L 527.872265 56.554533 
L 531.774361 53.300933 
L 535.676456 47.878267 
L 539.578551 43.214773 
L 543.480647 36.816027 
L 547.382742 30.851093 
L 549.64 26.961378 
L 549.64 26.961378 
" style="fill:none;stroke:#545454;stroke-linecap:square;stroke-width:2;"/>
   </g>
   <g id="line2d_13">
    <path clip-path="url(#p94bef99886)" d="M 67.425 309.2508 
L 71.327095 466.508133 
L 75.229191 452.951467 
L 79.131286 419.330933 
L 83.033382 438.310267 
L 86.935477 428.0072 
L 90.837573 404.147467 
L 94.739668 399.809333 
L 98.641764 380.287733 
L 102.543859 382.4568 
L 106.445955 366.731067 
L 110.34805 366.731067 
L 114.250146 340.16 
L 118.152241 317.927067 
L 122.054337 311.962133 
L 125.956432 308.166267 
L 129.858527 282.679733 
L 133.760623 266.954 
L 137.662718 281.052933 
L 141.564814 276.172533 
L 145.466909 265.869467 
L 149.369005 266.411733 
L 153.2711 262.615867 
L 157.173196 247.4324 
L 161.075291 215.438667 
L 164.977387 229.5376 
L 168.879482 220.319067 
L 172.781578 209.473733 
L 176.683673 210.016 
L 180.585769 195.917067 
L 184.487864 199.712933 
L 188.389959 192.663467 
L 192.292055 188.325333 
L 196.19415 189.409867 
L 200.096246 197.543867 
L 203.998341 197.0016 
L 207.900437 180.191333 
L 211.802532 200.2552 
L 215.704628 181.818133 
L 219.606723 167.176933 
L 223.508819 151.993467 
L 227.410914 150.366667 
L 231.31301 145.486267 
L 235.215105 130.3028 
L 239.117201 146.028533 
L 243.019296 143.859467 
L 246.921391 135.1832 
L 250.823487 138.4368 
L 254.725582 122.711067 
L 258.627678 114.0348 
L 262.529773 102.6472 
L 266.431869 105.358533 
L 270.333964 112.408 
L 274.23606 105.358533 
L 278.138155 92.344133 
L 282.040251 93.970933 
L 285.942346 90.175067 
L 289.844442 84.7524 
L 293.746537 84.7524 
L 297.648633 92.8864 
L 301.550728 99.3936 
L 305.452823 83.1256 
L 309.354919 91.2596 
L 313.257014 89.090533 
L 317.15911 82.583333 
L 321.061205 84.7524 
L 324.963301 91.801867 
L 328.865396 82.041067 
L 332.767492 77.702933 
L 336.669587 75.533867 
L 340.571683 67.399867 
L 344.473778 56.554533 
L 348.375874 66.8576 
L 352.277969 67.942133 
L 356.180065 64.146267 
L 360.08216 57.0968 
L 363.984255 51.674133 
L 367.886351 44.0824 
L 371.788446 38.659733 
L 375.690542 31.068 
L 379.592637 33.779333 
L 383.494733 28.898933 
L 387.396828 31.610267 
L 391.298924 33.779333 
L 399.103115 19.6804 
L 403.00521 21.849467 
L 406.907306 12.630933 
L 410.809401 12.088667 
L 414.711497 7.750533 
L 418.613592 4.496933 
L 420.940378 -1 
L 420.940378 -1 
" style="fill:none;stroke:#0000ff;stroke-linecap:square;stroke-opacity:0.5;"/>
   </g>
   <g id="line2d_14">
    <path clip-path="url(#p94bef99886)" d="M 75.229191 417.27032 
L 79.131286 441.0216 
L 83.033382 428.549467 
L 86.935477 417.92104 
L 90.837573 410.1124 
L 94.739668 398.941707 
L 98.641764 386.68648 
L 102.543859 379.2032 
L 106.445955 367.273333 
L 110.34805 354.8012 
L 114.250146 340.702267 
L 118.152241 328.989307 
L 122.054337 312.17904 
L 125.956432 297.53784 
L 133.760623 283.005093 
L 137.662718 274.545733 
L 141.564814 271.292133 
L 145.466909 270.424507 
L 149.369005 263.7004 
L 153.2711 251.553627 
L 157.173196 244.287253 
L 161.075291 235.06872 
L 164.977387 224.440293 
L 168.879482 216.957013 
L 172.781578 213.052693 
L 176.683673 207.08776 
L 180.585769 201.55664 
L 188.389959 193.205733 
L 192.292055 193.531093 
L 196.19415 192.988827 
L 200.096246 190.4944 
L 203.998341 192.880373 
L 207.900437 191.362027 
L 211.802532 185.28864 
L 215.704628 176.287013 
L 219.606723 170.32208 
L 223.508819 159.368293 
L 227.410914 149.065227 
L 231.31301 144.835547 
L 235.215105 143.208747 
L 239.117201 140.172053 
L 246.921391 137.243813 
L 250.823487 130.845067 
L 254.725582 122.602613 
L 258.627678 116.63768 
L 262.529773 111.43192 
L 266.431869 107.961413 
L 270.333964 103.62328 
L 274.23606 101.888027 
L 278.138155 98.851333 
L 282.040251 93.320213 
L 285.942346 89.198987 
L 289.844442 89.30744 
L 293.746537 90.391973 
L 297.648633 88.98208 
L 301.550728 90.28352 
L 305.452823 91.151147 
L 309.354919 89.090533 
L 313.257014 86.162293 
L 317.15911 87.897547 
L 321.061205 86.05384 
L 324.963301 83.77632 
L 328.865396 82.366427 
L 332.767492 78.89592 
L 336.669587 71.846453 
L 340.571683 68.80976 
L 344.473778 66.8576 
L 348.375874 64.58008 
L 352.277969 62.519467 
L 356.180065 61.543387 
L 360.08216 56.988347 
L 363.984255 51.131867 
L 367.886351 44.516213 
L 375.690542 35.29768 
L 379.592637 32.803253 
L 387.396828 30.959547 
L 391.298924 28.13976 
L 395.201019 26.729867 
L 399.103115 22.934 
L 403.00521 18.595867 
L 406.907306 14.8 
L 410.809401 11.763307 
L 414.711497 6.449093 
L 418.613592 2.327867 
L 422.135208 -1 
L 422.135208 -1 
" style="fill:none;stroke:#0000ff;stroke-linecap:square;stroke-width:2;"/>
   </g>
   <g id="line2d_15">
    <path clip-path="url(#p94bef99886)" d="M 67.425 309.2508 
L 71.327095 466.508133 
L 75.229191 457.2896 
L 79.131286 455.6628 
L 83.033382 432.8876 
L 86.935477 433.972133 
L 90.837573 411.7392 
L 94.739668 413.366 
L 98.641764 406.8588 
L 102.543859 384.0836 
L 106.445955 367.273333 
L 110.34805 348.836267 
L 114.250146 335.821867 
L 118.152241 336.364133 
L 122.054337 340.16 
L 125.956432 332.026 
L 129.858527 317.3848 
L 133.760623 324.434267 
L 137.662718 316.300267 
L 141.564814 305.454933 
L 145.466909 296.2364 
L 149.369005 294.6096 
L 153.2711 289.186933 
L 157.173196 295.151867 
L 161.075291 292.440533 
L 164.977387 292.440533 
L 168.879482 297.8632 
L 172.781578 296.2364 
L 176.683673 291.898267 
L 180.585769 289.186933 
L 184.487864 284.306533 
L 188.389959 280.510667 
L 192.292055 282.137467 
L 196.19415 284.306533 
L 200.096246 279.9684 
L 203.998341 285.391067 
L 207.900437 282.137467 
L 211.802532 287.560133 
L 215.704628 274.545733 
L 219.606723 274.003467 
L 223.508819 251.770533 
L 227.410914 235.502533 
L 231.31301 231.706667 
L 235.215105 214.354133 
L 239.117201 202.966533 
L 243.019296 204.593333 
L 246.921391 194.290267 
L 250.823487 194.832533 
L 254.725582 193.748 
L 258.627678 188.8676 
L 262.529773 178.564533 
L 266.431869 172.5996 
L 270.333964 167.176933 
L 274.23606 156.3316 
L 278.138155 165.007867 
L 282.040251 151.4512 
L 285.942346 155.247067 
L 289.844442 153.620267 
L 293.746537 141.6904 
L 297.648633 148.1976 
L 301.550728 135.1832 
L 305.452823 135.725467 
L 309.354919 131.9296 
L 313.257014 114.0348 
L 317.15911 119.999733 
L 321.061205 116.203867 
L 324.963301 115.119333 
L 328.865396 111.865733 
L 332.767492 95.055467 
L 336.669587 90.717333 
L 340.571683 88.548267 
L 344.473778 76.6184 
L 348.375874 82.583333 
L 352.277969 78.2452 
L 356.180065 66.315333 
L 360.08216 65.773067 
L 363.984255 80.956533 
L 367.886351 82.583333 
L 371.788446 82.583333 
L 375.690542 84.210133 
L 379.592637 84.210133 
L 383.494733 80.956533 
L 387.396828 78.787467 
L 391.298924 77.160667 
L 395.201019 74.449333 
L 399.103115 80.956533 
L 403.00521 65.2308 
L 406.907306 58.7236 
L 410.809401 52.758667 
L 414.711497 51.674133 
L 418.613592 48.420533 
L 422.515687 47.336 
L 426.417783 41.913333 
L 430.319878 42.997867 
L 434.221974 41.371067 
L 438.124069 33.237067 
L 442.026165 33.237067 
L 445.92826 28.898933 
L 449.830356 25.103067 
L 453.732451 19.6804 
L 457.634547 16.4268 
L 461.536642 15.342267 
L 465.438738 11.004133 
L 473.242929 7.750533 
L 477.145024 7.750533 
L 481.047119 6.666 
L 484.949215 9.377333 
L 488.85131 9.9196 
L 492.753406 -0.383467 
L 493.123115 -1 
L 493.123115 -1 
" style="fill:none;stroke:#00d992;stroke-linecap:square;stroke-opacity:0.5;"/>
   </g>
   <g id="line2d_16">
    <path clip-path="url(#p94bef99886)" d="M 75.229191 424.319787 
L 79.131286 449.264053 
L 83.033382 438.310267 
L 86.935477 429.525547 
L 94.739668 410.003947 
L 98.641764 396.664187 
L 102.543859 384.0836 
L 106.445955 368.574773 
L 110.34805 354.47584 
L 114.250146 345.69112 
L 118.152241 338.641653 
L 122.054337 332.35136 
L 125.956432 330.07384 
L 129.858527 326.061067 
L 137.662718 311.962133 
L 141.564814 307.407093 
L 145.466909 300.357627 
L 149.369005 296.127947 
L 153.2711 293.525067 
L 157.173196 292.765893 
L 161.075291 293.416613 
L 164.977387 294.826507 
L 172.781578 293.525067 
L 176.683673 291.898267 
L 180.585769 288.42776 
L 184.487864 285.607973 
L 188.389959 284.089627 
L 192.292055 282.24592 
L 200.096246 282.788187 
L 203.998341 283.87272 
L 207.900437 281.92056 
L 211.802532 280.727573 
L 215.704628 274.003467 
L 219.606723 264.67648 
L 223.508819 253.505787 
L 227.410914 241.467467 
L 231.31301 227.26008 
L 235.215105 217.82464 
L 239.117201 209.582187 
L 243.019296 202.20736 
L 246.921391 198.086133 
L 250.823487 195.266347 
L 254.725582 190.060587 
L 258.627678 185.722453 
L 262.529773 180.191333 
L 266.431869 172.708053 
L 270.333964 167.936107 
L 274.23606 162.51344 
L 278.138155 159.042933 
L 282.040251 156.3316 
L 285.942346 153.40336 
L 293.746537 146.787707 
L 297.648633 142.883387 
L 301.550728 138.545253 
L 309.354919 127.37456 
L 313.257014 123.578693 
L 321.061205 115.444693 
L 324.963301 111.648827 
L 328.865396 105.792347 
L 332.767492 100.261227 
L 336.669587 92.56104 
L 340.571683 86.70456 
L 344.473778 83.342507 
L 348.375874 78.462107 
L 352.277969 73.907067 
L 356.180065 74.774693 
L 360.08216 74.774693 
L 363.984255 75.64232 
L 371.788446 82.908693 
L 375.690542 82.908693 
L 379.592637 82.14952 
L 383.494733 81.064987 
L 387.396828 79.112827 
L 391.298924 78.462107 
L 395.201019 75.31696 
L 399.103115 71.304187 
L 403.00521 66.423787 
L 406.907306 61.868747 
L 410.809401 55.361547 
L 414.711497 51.782587 
L 418.613592 48.420533 
L 426.417783 44.40776 
L 430.319878 41.371067 
L 434.221974 38.55128 
L 438.124069 35.9484 
L 442.026165 32.36944 
L 445.92826 28.031307 
L 449.830356 24.669253 
L 457.634547 17.511333 
L 461.536642 14.366187 
L 465.438738 11.980213 
L 473.242929 8.509707 
L 477.145024 8.184347 
L 481.047119 8.2928 
L 484.949215 6.666 
L 488.85131 3.73776 
L 492.806847 -1 
L 492.806847 -1 
" style="fill:none;stroke:#00d992;stroke-linecap:square;stroke-width:2;"/>
   </g>
   <g id="line2d_17">
    <path clip-path="url(#p94bef99886)" d="M 67.425 309.2508 
L 71.327095 466.508133 
L 75.229191 457.2896 
L 79.131286 425.295867 
L 83.033382 455.120533 
L 86.935477 442.106133 
L 90.837573 433.972133 
L 94.739668 439.937067 
L 98.641764 412.281467 
L 102.543859 373.780533 
L 106.445955 355.343467 
L 110.34805 345.582667 
L 114.250146 338.5332 
L 118.152241 337.448667 
L 122.054337 323.892 
L 125.956432 305.9972 
L 129.858527 316.300267 
L 133.760623 300.032267 
L 137.662718 284.306533 
L 141.564814 270.2076 
L 145.466909 278.3416 
L 149.369005 266.954 
L 153.2711 260.989067 
L 157.173196 248.516933 
L 161.075291 261.531333 
L 164.977387 247.974667 
L 168.879482 228.453067 
L 172.781578 223.572667 
L 176.683673 202.966533 
L 180.585769 199.170667 
L 184.487864 205.677867 
L 188.389959 189.409867 
L 192.292055 189.952133 
L 196.19415 181.818133 
L 200.096246 186.698533 
L 203.998341 185.614 
L 207.900437 175.8532 
L 211.802532 160.127467 
L 215.704628 150.908933 
L 219.606723 137.894533 
L 223.508819 131.387333 
L 227.410914 136.81 
L 231.31301 123.7956 
L 235.215105 116.746133 
L 239.117201 113.492533 
L 243.019296 120.542 
L 246.921391 126.506933 
L 250.823487 123.253333 
L 254.725582 129.760533 
L 258.627678 131.9296 
L 262.529773 122.1688 
L 266.431869 119.457467 
L 270.333964 114.577067 
L 274.23606 111.865733 
L 278.138155 113.492533 
L 282.040251 108.069867 
L 285.942346 103.731733 
L 289.844442 113.492533 
L 293.746537 110.7812 
L 297.648633 106.985333 
L 301.550728 108.069867 
L 305.452823 93.428667 
L 309.354919 91.2596 
L 313.257014 100.478133 
L 317.15911 91.801867 
L 321.061205 91.2596 
L 324.963301 93.970933 
L 328.865396 86.921467 
L 332.767492 85.294667 
L 336.669587 82.041067 
L 340.571683 83.667867 
L 344.473778 83.667867 
L 348.375874 85.836933 
L 352.277969 87.463733 
L 356.180065 88.006 
L 360.08216 82.041067 
L 363.984255 83.667867 
L 367.886351 83.1256 
L 371.788446 78.787467 
L 375.690542 83.1256 
L 379.592637 78.2452 
L 383.494733 70.653467 
L 387.396828 68.4844 
L 391.298924 66.8576 
L 395.201019 64.146267 
L 399.103115 65.2308 
L 403.00521 57.0968 
L 406.907306 63.604 
L 410.809401 52.2164 
L 414.711497 57.639067 
L 418.613592 59.265867 
L 422.515687 56.554533 
L 426.417783 48.9628 
L 430.319878 41.913333 
L 434.221974 28.356667 
L 438.124069 26.729867 
L 442.026165 19.6804 
L 445.92826 29.4412 
L 449.830356 29.983467 
L 453.732451 19.6804 
L 457.634547 19.138133 
L 461.536642 15.884533 
L 465.438738 16.4268 
L 469.340833 12.088667 
L 473.242929 6.666 
L 477.145024 1.7856 
L 481.047119 -0.383467 
L 483.265375 -1 
L 483.265375 -1 
" style="fill:none;stroke:#0048db;stroke-linecap:square;stroke-opacity:0.5;"/>
   </g>
   <g id="line2d_18">
    <path clip-path="url(#p94bef99886)" d="M 75.229191 422.692987 
L 79.131286 449.264053 
L 83.033382 442.756853 
L 86.935477 439.286347 
L 90.837573 436.683467 
L 94.739668 420.415467 
L 102.543859 385.38504 
L 106.445955 365.104267 
L 110.34805 350.137707 
L 118.152241 330.290747 
L 122.054337 324.434267 
L 125.956432 316.73408 
L 133.760623 295.368773 
L 137.662718 289.837653 
L 141.564814 279.9684 
L 145.466909 272.15976 
L 149.369005 265.00184 
L 153.2711 263.266587 
L 157.173196 257.1932 
L 164.977387 242.009733 
L 168.879482 232.899653 
L 172.781578 220.42752 
L 176.683673 211.96816 
L 180.585769 204.15952 
L 184.487864 197.435413 
L 188.389959 193.205733 
L 192.292055 190.711307 
L 196.19415 186.698533 
L 200.096246 183.9872 
L 203.998341 178.022267 
L 207.900437 171.840427 
L 211.802532 162.079627 
L 215.704628 151.234293 
L 219.606723 143.425653 
L 223.508819 136.15928 
L 227.410914 129.32672 
L 231.31301 124.44632 
L 239.117201 120.21664 
L 243.019296 120.108187 
L 246.921391 122.711067 
L 250.823487 126.39848 
L 254.725582 126.72384 
L 258.627678 125.313947 
L 262.529773 123.578693 
L 270.333964 116.31232 
L 274.23606 113.492533 
L 278.138155 110.347387 
L 285.942346 109.913573 
L 289.844442 108.612133 
L 293.746537 108.612133 
L 297.648633 106.55152 
L 301.550728 102.104933 
L 305.452823 100.04432 
L 309.354919 97.007627 
L 313.257014 93.645573 
L 317.15911 93.754027 
L 321.061205 92.8864 
L 324.963301 89.849707 
L 328.865396 87.897547 
L 332.767492 86.3792 
L 336.669587 84.318587 
L 340.571683 84.10168 
L 344.473778 84.535493 
L 348.375874 85.72848 
L 352.277969 85.40312 
L 356.180065 85.40312 
L 360.08216 84.860853 
L 363.984255 83.1256 
L 367.886351 82.14952 
L 371.788446 81.390347 
L 375.690542 78.787467 
L 379.592637 75.859227 
L 383.494733 73.473253 
L 387.396828 69.677387 
L 395.201019 64.363173 
L 399.103115 63.387093 
L 403.00521 60.458853 
L 410.809401 57.964427 
L 414.711497 57.855973 
L 418.613592 54.927733 
L 422.515687 52.86712 
L 426.417783 47.01064 
L 430.319878 40.50344 
L 434.221974 33.128613 
L 438.124069 29.224293 
L 442.026165 26.83832 
L 445.92826 25.103067 
L 449.830356 23.58472 
L 453.732451 22.825547 
L 457.634547 20.222667 
L 461.536642 16.643707 
L 465.438738 14.040827 
L 469.340833 10.57032 
L 473.242929 7.31672 
L 477.145024 3.73776 
L 481.916064 -1 
L 481.916064 -1 
" style="fill:none;stroke:#0048db;stroke-linecap:square;stroke-width:2;"/>
   </g>
   <g id="line2d_19">
    <path clip-path="url(#p94bef99886)" d="M 67.425 309.2508 
L 71.327095 466.508133 
L 75.229191 449.1556 
L 79.131286 430.176267 
L 83.033382 427.464933 
L 86.935477 411.7392 
L 90.837573 405.774267 
L 94.739668 387.879467 
L 98.641764 373.238267 
L 102.543859 360.766133 
L 106.445955 372.696 
L 110.34805 378.660933 
L 114.250146 368.357867 
L 118.152241 368.900133 
L 122.054337 350.463067 
L 125.956432 326.603333 
L 129.858527 331.483733 
L 133.760623 311.419867 
L 137.662718 306.539467 
L 141.564814 300.032267 
L 145.466909 288.644667 
L 149.369005 273.4612 
L 153.2711 282.137467 
L 157.173196 271.8344 
L 161.075291 262.0736 
L 164.977387 276.172533 
L 168.879482 259.362267 
L 172.781578 253.9396 
L 176.683673 250.686 
L 180.585769 250.143733 
L 184.487864 242.009733 
L 188.389959 232.248933 
L 192.292055 224.6572 
L 196.19415 211.100533 
L 200.096246 208.3892 
L 203.998341 202.966533 
L 207.900437 195.3748 
L 211.802532 189.952133 
L 215.704628 187.783067 
L 219.606723 192.1212 
L 223.508819 183.9872 
L 227.410914 177.48 
L 231.31301 168.261467 
L 235.215105 168.803733 
L 239.117201 160.669733 
L 243.019296 157.9584 
L 246.921391 159.5852 
L 250.823487 156.3316 
L 254.725582 162.8388 
L 258.627678 154.162533 
L 262.529773 163.381067 
L 266.431869 160.127467 
L 270.333964 162.296533 
L 274.23606 156.873867 
L 278.138155 155.247067 
L 282.040251 148.1976 
L 285.942346 143.3172 
L 289.844442 143.859467 
L 293.746537 141.148133 
L 297.648633 138.979067 
L 301.550728 130.845067 
L 305.452823 131.387333 
L 309.354919 137.894533 
L 313.257014 135.1832 
L 317.15911 133.014133 
L 321.061205 123.253333 
L 324.963301 130.845067 
L 328.865396 109.1544 
L 332.767492 114.577067 
L 336.669587 108.069867 
L 340.571683 95.597733 
L 344.473778 104.816267 
L 348.375874 104.816267 
L 352.277969 95.597733 
L 356.180065 91.801867 
L 360.08216 103.189467 
L 363.984255 93.970933 
L 367.886351 79.872 
L 371.788446 84.7524 
L 375.690542 76.076133 
L 379.592637 63.604 
L 383.494733 66.315333 
L 387.396828 73.3648 
L 391.298924 73.3648 
L 395.201019 67.942133 
L 399.103115 74.9916 
L 403.00521 75.533867 
L 406.907306 74.9916 
L 410.809401 67.942133 
L 414.711497 60.3504 
L 418.613592 57.639067 
L 422.515687 64.688533 
L 426.417783 53.300933 
L 430.319878 48.420533 
L 434.221974 37.5752 
L 438.124069 38.117467 
L 442.026165 31.068 
L 445.92826 29.4412 
L 449.830356 38.117467 
L 453.732451 31.610267 
L 457.634547 32.152533 
L 461.536642 25.103067 
L 465.438738 25.645333 
L 469.340833 3.4124 
L 473.242929 7.208267 
L 477.145024 10.461867 
L 481.047119 5.0392 
L 484.949215 8.835067 
L 488.85131 7.208267 
L 491.960039 -1 
M 495.768199 -1 
L 496.655501 -0.383467 
L 496.916473 -1 
L 496.916473 -1 
" style="fill:none;stroke:#0091b6;stroke-linecap:square;stroke-opacity:0.5;"/>
   </g>
   <g id="line2d_20">
    <path clip-path="url(#p94bef99886)" d="M 75.229191 416.511147 
L 79.131286 437.008827 
L 86.935477 412.606827 
L 90.837573 401.219227 
L 94.739668 387.879467 
L 98.641764 380.070827 
L 102.543859 374.64816 
L 106.445955 370.74384 
L 110.34805 369.876213 
L 114.250146 367.8156 
L 122.054337 349.161627 
L 125.956432 337.774027 
L 129.858527 325.301893 
L 133.760623 315.215733 
L 137.662718 307.624 
L 141.564814 296.019493 
L 145.466909 290.163013 
L 149.369005 283.222 
L 153.2711 275.630267 
L 157.173196 273.13584 
L 161.075291 270.316053 
L 164.977387 264.67648 
L 168.879482 260.4468 
L 172.781578 258.060827 
L 176.683673 251.228267 
L 180.585769 245.8056 
L 184.487864 239.94912 
L 188.389959 232.032027 
L 192.292055 223.68112 
L 196.19415 215.87248 
L 200.096246 208.497653 
L 203.998341 201.55664 
L 207.900437 196.893147 
L 211.802532 193.639547 
L 215.704628 189.84368 
L 219.606723 186.26472 
L 223.508819 181.926587 
L 227.410914 178.13072 
L 231.31301 171.840427 
L 235.215105 166.634667 
L 239.117201 163.055707 
L 243.019296 160.669733 
L 250.823487 158.175307 
L 254.725582 159.25984 
L 258.627678 159.368293 
L 262.529773 160.56128 
L 266.431869 159.368293 
L 270.333964 159.5852 
L 274.23606 156.548507 
L 278.138155 153.186453 
L 282.040251 149.49904 
L 289.844442 143.100293 
L 293.746537 139.629787 
L 297.648633 137.243813 
L 309.354919 133.664853 
L 313.257014 132.146507 
L 317.15911 132.038053 
L 321.061205 126.290027 
L 324.963301 122.1688 
L 328.865396 117.179947 
L 332.767492 111.648827 
L 336.669587 106.443067 
L 340.571683 105.57544 
L 344.473778 101.779573 
L 348.375874 98.525973 
L 352.277969 100.04432 
L 356.180065 97.875253 
L 360.08216 92.8864 
L 363.984255 90.717333 
L 367.886351 87.572187 
L 371.788446 79.655093 
L 375.690542 74.123973 
L 379.592637 72.822533 
L 383.494733 70.545013 
L 387.396828 68.918213 
L 391.298924 71.195733 
L 395.201019 73.03944 
L 399.103115 73.3648 
L 403.00521 72.280267 
L 406.907306 70.76192 
L 410.809401 67.291413 
L 414.711497 65.122347 
L 418.613592 60.784213 
L 422.515687 56.879893 
L 426.417783 52.324853 
L 430.319878 48.420533 
L 434.221974 41.696427 
L 438.124069 36.92448 
L 442.026165 34.863867 
L 453.732451 31.284907 
L 457.634547 30.525733 
L 461.536642 23.58472 
L 465.438738 18.70432 
L 469.340833 14.366187 
L 473.242929 10.353413 
L 477.145024 6.99136 
L 481.047119 7.750533 
L 488.85131 3.520853 
L 492.753406 0.592613 
L 494.151001 -1 
L 494.151001 -1 
" style="fill:none;stroke:#0091b6;stroke-linecap:square;stroke-width:2;"/>
   </g>
   <g id="patch_3">
    <path d="M 67.425 502.84 
L 67.425 14.8 
" style="fill:none;stroke:#000000;stroke-linecap:square;stroke-linejoin:miter;stroke-width:0.8;"/>
   </g>
   <g id="patch_4">
    <path d="M 67.425 502.84 
L 360.08216 502.84 
" style="fill:none;stroke:#000000;stroke-linecap:square;stroke-linejoin:miter;stroke-width:0.8;"/>
   </g>
   <g id="text_11">
    <!-- initial accuracy -->
    <defs>
     <path d="M 18.3125 75.984375 
L 27.296875 75.984375 
L 25.09375 64.59375 
L 16.109375 64.59375 
z
M 14.203125 54.6875 
L 23.1875 54.6875 
L 12.5 0 
L 3.515625 0 
z
" id="DejaVuSans-Oblique-105"/>
     <path d="M 55.71875 33.015625 
L 49.3125 0 
L 40.28125 0 
L 46.6875 32.671875 
Q 47.125 34.96875 47.359375 36.71875 
Q 47.609375 38.484375 47.609375 39.5 
Q 47.609375 43.609375 45.015625 45.890625 
Q 42.4375 48.1875 37.796875 48.1875 
Q 30.5625 48.1875 25.34375 43.375 
Q 20.125 38.578125 18.5 30.328125 
L 12.5 0 
L 3.515625 0 
L 14.109375 54.6875 
L 23.09375 54.6875 
L 21.296875 46.09375 
Q 25.046875 50.828125 30.3125 53.40625 
Q 35.59375 56 41.40625 56 
Q 48.640625 56 52.609375 52.09375 
Q 56.59375 48.1875 56.59375 41.109375 
Q 56.59375 39.359375 56.375 37.359375 
Q 56.15625 35.359375 55.71875 33.015625 
z
" id="DejaVuSans-Oblique-110"/>
     <path d="M 42.28125 54.6875 
L 40.921875 47.703125 
L 23 47.703125 
L 17.1875 18.015625 
Q 16.890625 16.359375 16.75 15.234375 
Q 16.609375 14.109375 16.609375 13.484375 
Q 16.609375 10.359375 18.484375 8.9375 
Q 20.359375 7.515625 24.515625 7.515625 
L 33.59375 7.515625 
L 32.078125 0 
L 23.484375 0 
Q 15.484375 0 11.546875 3.125 
Q 7.625 6.25 7.625 12.59375 
Q 7.625 13.71875 7.765625 15.0625 
Q 7.90625 16.40625 8.203125 18.015625 
L 14.015625 47.703125 
L 6.390625 47.703125 
L 7.8125 54.6875 
L 15.28125 54.6875 
L 18.3125 70.21875 
L 27.296875 70.21875 
L 24.3125 54.6875 
z
" id="DejaVuSans-Oblique-116"/>
     <path d="M 53.71875 31.203125 
L 47.609375 0 
L 38.625 0 
L 40.28125 8.296875 
Q 36.328125 3.421875 31.265625 1 
Q 26.21875 -1.421875 20.015625 -1.421875 
Q 13.03125 -1.421875 8.5625 2.84375 
Q 4.109375 7.125 4.109375 13.8125 
Q 4.109375 23.390625 11.75 28.953125 
Q 19.390625 34.515625 32.8125 34.515625 
L 45.3125 34.515625 
L 45.796875 36.921875 
Q 45.90625 37.3125 45.953125 37.765625 
Q 46 38.234375 46 39.203125 
Q 46 43.5625 42.453125 45.96875 
Q 38.921875 48.390625 32.515625 48.390625 
Q 28.125 48.390625 23.5 47.265625 
Q 18.890625 46.140625 14.015625 43.890625 
L 15.578125 52.203125 
Q 20.65625 54.109375 25.515625 55.046875 
Q 30.375 56 34.90625 56 
Q 44.578125 56 49.625 51.796875 
Q 54.6875 47.609375 54.6875 39.59375 
Q 54.6875 37.984375 54.4375 35.8125 
Q 54.203125 33.640625 53.71875 31.203125 
z
M 44 27.484375 
L 35.015625 27.484375 
Q 23.96875 27.484375 18.671875 24.53125 
Q 13.375 21.578125 13.375 15.375 
Q 13.375 11.078125 16.078125 8.640625 
Q 18.796875 6.203125 23.578125 6.203125 
Q 30.90625 6.203125 36.375 11.453125 
Q 41.84375 16.703125 43.609375 25.484375 
z
" id="DejaVuSans-Oblique-97"/>
     <path d="M 18.3125 75.984375 
L 27.296875 75.984375 
L 12.5 0 
L 3.515625 0 
z
" id="DejaVuSans-Oblique-108"/>
     <path id="DejaVuSans-Oblique-32"/>
     <path d="M 53.609375 52.59375 
L 51.8125 43.703125 
Q 48.578125 46.046875 44.9375 47.21875 
Q 41.3125 48.390625 37.40625 48.390625 
Q 33.109375 48.390625 29.21875 46.875 
Q 25.34375 45.359375 22.703125 42.578125 
Q 18.5 38.328125 16.203125 32.609375 
Q 13.921875 26.90625 13.921875 20.796875 
Q 13.921875 13.421875 17.609375 9.8125 
Q 21.296875 6.203125 28.8125 6.203125 
Q 32.515625 6.203125 36.6875 7.328125 
Q 40.875 8.453125 45.40625 10.6875 
L 43.703125 1.8125 
Q 39.796875 0.203125 35.671875 -0.609375 
Q 31.546875 -1.421875 27.203125 -1.421875 
Q 16.3125 -1.421875 10.453125 4.015625 
Q 4.59375 9.46875 4.59375 19.578125 
Q 4.59375 28.078125 7.640625 35.234375 
Q 10.6875 42.390625 16.703125 48.09375 
Q 20.796875 52 26.3125 54 
Q 31.84375 56 38.375 56 
Q 42.1875 56 45.9375 55.140625 
Q 49.703125 54.296875 53.609375 52.59375 
z
" id="DejaVuSans-Oblique-99"/>
     <path d="M 6.6875 21.6875 
L 13.09375 54.6875 
L 22.125 54.6875 
L 15.71875 22.015625 
Q 15.234375 19.625 15.015625 17.921875 
Q 14.796875 16.21875 14.796875 15.09375 
Q 14.796875 10.9375 17.328125 8.65625 
Q 19.875 6.390625 24.515625 6.390625 
Q 31.734375 6.390625 37 11.265625 
Q 42.28125 16.15625 43.890625 24.421875 
L 49.90625 54.6875 
L 58.890625 54.6875 
L 48.296875 0 
L 39.3125 0 
L 41.109375 8.59375 
Q 37.3125 3.8125 32.0625 1.1875 
Q 26.8125 -1.421875 20.90625 -1.421875 
Q 13.71875 -1.421875 9.71875 2.515625 
Q 5.71875 6.453125 5.71875 13.484375 
Q 5.71875 14.9375 5.953125 17.140625 
Q 6.203125 19.34375 6.6875 21.6875 
z
" id="DejaVuSans-Oblique-117"/>
     <path d="M 44.578125 46.390625 
Q 43.21875 47.125 41.453125 47.515625 
Q 39.703125 47.90625 37.703125 47.90625 
Q 30.515625 47.90625 25.140625 42.453125 
Q 19.78125 37.015625 18.015625 27.875 
L 12.5 0 
L 3.515625 0 
L 14.203125 54.6875 
L 23.1875 54.6875 
L 21.484375 46.1875 
Q 25.046875 50.921875 30 53.453125 
Q 34.96875 56 40.578125 56 
Q 42.046875 56 43.453125 55.828125 
Q 44.875 55.671875 46.296875 55.28125 
z
" id="DejaVuSans-Oblique-114"/>
     <path d="M 24.8125 -5.078125 
Q 18.5625 -15.578125 14.625 -18.1875 
Q 10.6875 -20.796875 4.59375 -20.796875 
L -2.484375 -20.796875 
L -0.984375 -13.28125 
L 4.203125 -13.28125 
Q 7.953125 -13.28125 10.59375 -11.234375 
Q 13.234375 -9.1875 16.5 -3.21875 
L 19.28125 2 
L 7.171875 54.6875 
L 16.703125 54.6875 
L 25.78125 12.796875 
L 50.875 54.6875 
L 60.296875 54.6875 
z
" id="DejaVuSans-Oblique-121"/>
    </defs>
    <g style="fill:#808080;" transform="translate(363.984255 313.3178)scale(0.14 -0.14)">
     <use xlink:href="#DejaVuSans-Oblique-105"/>
     <use x="27.783203" xlink:href="#DejaVuSans-Oblique-110"/>
     <use x="91.162109" xlink:href="#DejaVuSans-Oblique-105"/>
     <use x="118.945312" xlink:href="#DejaVuSans-Oblique-116"/>
     <use x="158.154297" xlink:href="#DejaVuSans-Oblique-105"/>
     <use x="185.9375" xlink:href="#DejaVuSans-Oblique-97"/>
     <use x="247.216797" xlink:href="#DejaVuSans-Oblique-108"/>
     <use x="275" xlink:href="#DejaVuSans-Oblique-32"/>
     <use x="306.787109" xlink:href="#DejaVuSans-Oblique-97"/>
     <use x="368.066406" xlink:href="#DejaVuSans-Oblique-99"/>
     <use x="423.046875" xlink:href="#DejaVuSans-Oblique-99"/>
     <use x="478.027344" xlink:href="#DejaVuSans-Oblique-117"/>
     <use x="541.40625" xlink:href="#DejaVuSans-Oblique-114"/>
     <use x="582.519531" xlink:href="#DejaVuSans-Oblique-97"/>
     <use x="643.798828" xlink:href="#DejaVuSans-Oblique-99"/>
     <use x="698.779297" xlink:href="#DejaVuSans-Oblique-121"/>
    </g>
   </g>
   <g id="text_12">
    <!-- random -->
    <defs>
     <path d="M 59.078125 45.609375 
Q 62.40625 50.6875 66.96875 53.34375 
Q 71.53125 56 77 56 
Q 86.421875 56 91.359375 50.1875 
Q 96.296875 44.390625 96.296875 33.296875 
L 96.296875 0 
L 78.71875 0 
L 78.71875 28.515625 
Q 78.765625 29.15625 78.78125 29.828125 
Q 78.8125 30.515625 78.8125 31.78125 
Q 78.8125 37.59375 77.09375 40.203125 
Q 75.390625 42.828125 71.578125 42.828125 
Q 66.609375 42.828125 63.890625 38.71875 
Q 61.1875 34.625 61.078125 26.859375 
L 61.078125 0 
L 43.5 0 
L 43.5 28.515625 
Q 43.5 37.59375 41.9375 40.203125 
Q 40.375 42.828125 36.375 42.828125 
Q 31.34375 42.828125 28.609375 38.703125 
Q 25.875 34.578125 25.875 26.90625 
L 25.875 0 
L 8.296875 0 
L 8.296875 54.6875 
L 25.875 54.6875 
L 25.875 46.6875 
Q 29.109375 51.3125 33.28125 53.65625 
Q 37.453125 56 42.484375 56 
Q 48.140625 56 52.484375 53.265625 
Q 56.84375 50.53125 59.078125 45.609375 
z
" id="DejaVuSans-Bold-109"/>
    </defs>
    <g style="fill:#545454;" transform="translate(371.788446 148.089147)scale(0.14 -0.14)">
     <use xlink:href="#DejaVuSans-Bold-114"/>
     <use x="49.316406" xlink:href="#DejaVuSans-Bold-97"/>
     <use x="116.796875" xlink:href="#DejaVuSans-Bold-110"/>
     <use x="187.988281" xlink:href="#DejaVuSans-Bold-100"/>
     <use x="259.570312" xlink:href="#DejaVuSans-Bold-111"/>
     <use x="328.271484" xlink:href="#DejaVuSans-Bold-109"/>
    </g>
   </g>
   <g id="text_13">
    <!-- uncertainty, k=1 -->
    <defs>
     <path d="M 10.203125 18.890625 
L 27.78125 18.890625 
L 27.78125 4 
L 15.71875 -14.203125 
L 5.328125 -14.203125 
L 10.203125 4 
z
" id="DejaVuSans-Bold-44"/>
     <path d="M 8.40625 75.984375 
L 25.875 75.984375 
L 25.875 34.625 
L 46 54.6875 
L 66.3125 54.6875 
L 39.59375 29.59375 
L 68.40625 0 
L 47.21875 0 
L 25.875 22.796875 
L 25.875 0 
L 8.40625 0 
z
" id="DejaVuSans-Bold-107"/>
     <path d="M 10.59375 48.1875 
L 73.1875 48.1875 
L 73.1875 36.71875 
L 10.59375 36.71875 
z
M 10.59375 25.984375 
L 73.1875 25.984375 
L 73.1875 14.40625 
L 10.59375 14.40625 
z
" id="DejaVuSans-Bold-61"/>
     <path d="M 11.71875 12.984375 
L 28.328125 12.984375 
L 28.328125 60.109375 
L 11.28125 56.59375 
L 11.28125 69.390625 
L 28.21875 72.90625 
L 46.09375 72.90625 
L 46.09375 12.984375 
L 62.703125 12.984375 
L 62.703125 0 
L 11.71875 0 
z
" id="DejaVuSans-Bold-49"/>
    </defs>
    <g style="fill:#0000ff;" transform="translate(371.788446 56.988347)scale(0.14 -0.14)">
     <use xlink:href="#DejaVuSans-Bold-117"/>
     <use x="71.191406" xlink:href="#DejaVuSans-Bold-110"/>
     <use x="142.382812" xlink:href="#DejaVuSans-Bold-99"/>
     <use x="201.660156" xlink:href="#DejaVuSans-Bold-101"/>
     <use x="269.482422" xlink:href="#DejaVuSans-Bold-114"/>
     <use x="318.798828" xlink:href="#DejaVuSans-Bold-116"/>
     <use x="366.601562" xlink:href="#DejaVuSans-Bold-97"/>
     <use x="434.082031" xlink:href="#DejaVuSans-Bold-105"/>
     <use x="468.359375" xlink:href="#DejaVuSans-Bold-110"/>
     <use x="539.550781" xlink:href="#DejaVuSans-Bold-116"/>
     <use x="587.353516" xlink:href="#DejaVuSans-Bold-121"/>
     <use x="652.429688" xlink:href="#DejaVuSans-Bold-44"/>
     <use x="690.417969" xlink:href="#DejaVuSans-Bold-32"/>
     <use x="725.232422" xlink:href="#DejaVuSans-Bold-107"/>
     <use x="791.736328" xlink:href="#DejaVuSans-Bold-61"/>
     <use x="875.525391" xlink:href="#DejaVuSans-Bold-49"/>
    </g>
   </g>
   <g id="text_14">
    <!-- similar, k= -->
    <defs>
     <path d="M 41.609375 37.453125 
Q 45.21875 44.234375 48.09375 46.875 
Q 51.90625 50.4375 57.71875 50.4375 
Q 64.75 50.4375 69.28125 44.921875 
Q 74.125 39.109375 74.125 29.6875 
Q 74.125 20.5625 69.28125 14.359375 
Q 64.984375 8.9375 57.71875 8.9375 
Q 53.953125 8.9375 51.1875 10.5 
Q 48.4375 12.0625 45.75 15.375 
Q 42.875 19.53125 41.703125 22.015625 
Q 38.09375 15.234375 35.203125 12.59375 
Q 31.390625 9.03125 25.59375 9.03125 
Q 18.5625 9.03125 14.015625 14.546875 
Q 9.1875 20.359375 9.1875 29.78125 
Q 9.1875 38.921875 14.015625 45.125 
Q 18.3125 50.53125 25.59375 50.53125 
Q 29.34375 50.53125 32.09375 48.96875 
Q 34.859375 47.40625 37.546875 44.09375 
Q 40.4375 39.9375 41.609375 37.453125 
z
M 25.296875 18.953125 
Q 32.03125 18.953125 37.25 28.8125 
Q 30.609375 40.671875 25.296875 40.671875 
Q 20.90625 40.671875 18.703125 37.59375 
Q 16.3125 34.1875 16.3125 29.78125 
Q 16.3125 25 18.703125 21.96875 
Q 21.09375 18.953125 25.296875 18.953125 
z
M 58.015625 40.53125 
Q 51.265625 40.53125 46.046875 30.671875 
Q 52.6875 18.796875 58.015625 18.796875 
Q 62.40625 18.796875 64.59375 21.875 
Q 67 25.296875 67 29.6875 
Q 67 34.46875 64.59375 37.5 
Q 62.203125 40.53125 58.015625 40.53125 
z
" id="DejaVuSans-Bold-8734"/>
    </defs>
    <g style="fill:#00d992;" transform="translate(371.788446 74.774693)scale(0.14 -0.14)">
     <use xlink:href="#DejaVuSans-Bold-115"/>
     <use x="59.521484" xlink:href="#DejaVuSans-Bold-105"/>
     <use x="93.798828" xlink:href="#DejaVuSans-Bold-109"/>
     <use x="197.998047" xlink:href="#DejaVuSans-Bold-105"/>
     <use x="232.275391" xlink:href="#DejaVuSans-Bold-108"/>
     <use x="266.552734" xlink:href="#DejaVuSans-Bold-97"/>
     <use x="334.033203" xlink:href="#DejaVuSans-Bold-114"/>
     <use x="383.130859" xlink:href="#DejaVuSans-Bold-44"/>
     <use x="421.119141" xlink:href="#DejaVuSans-Bold-32"/>
     <use x="455.933594" xlink:href="#DejaVuSans-Bold-107"/>
     <use x="522.4375" xlink:href="#DejaVuSans-Bold-61"/>
     <use x="606.226562" xlink:href="#DejaVuSans-Bold-8734"/>
    </g>
   </g>
   <g id="text_15">
    <!-- thresholding, k=5 -->
    <defs>
     <path d="M 63.375 33.296875 
L 63.375 0 
L 45.796875 0 
L 45.796875 5.421875 
L 45.796875 25.390625 
Q 45.796875 32.5625 45.484375 35.25 
Q 45.171875 37.9375 44.390625 39.203125 
Q 43.359375 40.921875 41.59375 41.875 
Q 39.84375 42.828125 37.59375 42.828125 
Q 32.125 42.828125 29 38.59375 
Q 25.875 34.375 25.875 26.90625 
L 25.875 0 
L 8.40625 0 
L 8.40625 75.984375 
L 25.875 75.984375 
L 25.875 46.6875 
Q 29.828125 51.46875 34.265625 53.734375 
Q 38.71875 56 44.09375 56 
Q 53.5625 56 58.46875 50.1875 
Q 63.375 44.390625 63.375 33.296875 
z
" id="DejaVuSans-Bold-104"/>
     <path d="M 45.609375 9.28125 
Q 42 4.5 37.640625 2.25 
Q 33.296875 0 27.59375 0 
Q 17.578125 0 11.03125 7.875 
Q 4.5 15.765625 4.5 27.984375 
Q 4.5 40.234375 11.03125 48.0625 
Q 17.578125 55.90625 27.59375 55.90625 
Q 33.296875 55.90625 37.640625 53.65625 
Q 42 51.421875 45.609375 46.578125 
L 45.609375 54.6875 
L 63.1875 54.6875 
L 63.1875 5.515625 
Q 63.1875 -7.671875 54.859375 -14.625 
Q 46.53125 -21.578125 30.71875 -21.578125 
Q 25.59375 -21.578125 20.796875 -20.796875 
Q 16.015625 -20.015625 11.1875 -18.40625 
L 11.1875 -4.78125 
Q 15.765625 -7.421875 20.15625 -8.71875 
Q 24.5625 -10.015625 29 -10.015625 
Q 37.59375 -10.015625 41.59375 -6.25 
Q 45.609375 -2.484375 45.609375 5.515625 
z
M 34.078125 43.3125 
Q 28.65625 43.3125 25.625 39.296875 
Q 22.609375 35.296875 22.609375 27.984375 
Q 22.609375 20.453125 25.53125 16.578125 
Q 28.46875 12.703125 34.078125 12.703125 
Q 39.546875 12.703125 42.578125 16.703125 
Q 45.609375 20.703125 45.609375 27.984375 
Q 45.609375 35.296875 42.578125 39.296875 
Q 39.546875 43.3125 34.078125 43.3125 
z
" id="DejaVuSans-Bold-103"/>
     <path d="M 10.59375 72.90625 
L 57.328125 72.90625 
L 57.328125 59.078125 
L 25.59375 59.078125 
L 25.59375 47.796875 
Q 27.734375 48.390625 29.90625 48.703125 
Q 32.078125 49.03125 34.421875 49.03125 
Q 47.75 49.03125 55.171875 42.359375 
Q 62.59375 35.6875 62.59375 23.78125 
Q 62.59375 11.96875 54.515625 5.265625 
Q 46.4375 -1.421875 32.078125 -1.421875 
Q 25.875 -1.421875 19.796875 -0.21875 
Q 13.71875 0.984375 7.71875 3.421875 
L 7.71875 18.21875 
Q 13.671875 14.796875 19.015625 13.078125 
Q 24.359375 11.375 29.109375 11.375 
Q 35.9375 11.375 39.859375 14.71875 
Q 43.796875 18.0625 43.796875 23.78125 
Q 43.796875 29.546875 39.859375 32.859375 
Q 35.9375 36.1875 29.109375 36.1875 
Q 25.046875 36.1875 20.453125 35.125 
Q 15.875 34.078125 10.59375 31.890625 
z
" id="DejaVuSans-Bold-53"/>
    </defs>
    <g style="fill:#0048db;" transform="translate(371.788446 92.994853)scale(0.14 -0.14)">
     <use xlink:href="#DejaVuSans-Bold-116"/>
     <use x="47.802734" xlink:href="#DejaVuSans-Bold-104"/>
     <use x="118.994141" xlink:href="#DejaVuSans-Bold-114"/>
     <use x="168.310547" xlink:href="#DejaVuSans-Bold-101"/>
     <use x="236.132812" xlink:href="#DejaVuSans-Bold-115"/>
     <use x="295.654297" xlink:href="#DejaVuSans-Bold-104"/>
     <use x="366.845703" xlink:href="#DejaVuSans-Bold-111"/>
     <use x="435.546875" xlink:href="#DejaVuSans-Bold-108"/>
     <use x="469.824219" xlink:href="#DejaVuSans-Bold-100"/>
     <use x="541.40625" xlink:href="#DejaVuSans-Bold-105"/>
     <use x="575.683594" xlink:href="#DejaVuSans-Bold-110"/>
     <use x="646.875" xlink:href="#DejaVuSans-Bold-103"/>
     <use x="718.457031" xlink:href="#DejaVuSans-Bold-44"/>
     <use x="756.445312" xlink:href="#DejaVuSans-Bold-32"/>
     <use x="791.259766" xlink:href="#DejaVuSans-Bold-107"/>
     <use x="857.763672" xlink:href="#DejaVuSans-Bold-61"/>
     <use x="941.552734" xlink:href="#DejaVuSans-Bold-53"/>
    </g>
   </g>
   <g id="text_16">
    <!-- thresholding, k=100 -->
    <defs>
     <path d="M 46 36.53125 
Q 46 50.203125 43.4375 55.78125 
Q 40.875 61.375 34.8125 61.375 
Q 28.765625 61.375 26.171875 55.78125 
Q 23.578125 50.203125 23.578125 36.53125 
Q 23.578125 22.703125 26.171875 17.03125 
Q 28.765625 11.375 34.8125 11.375 
Q 40.828125 11.375 43.40625 17.03125 
Q 46 22.703125 46 36.53125 
z
M 64.796875 36.375 
Q 64.796875 18.265625 56.984375 8.421875 
Q 49.171875 -1.421875 34.8125 -1.421875 
Q 20.40625 -1.421875 12.59375 8.421875 
Q 4.78125 18.265625 4.78125 36.375 
Q 4.78125 54.546875 12.59375 64.375 
Q 20.40625 74.21875 34.8125 74.21875 
Q 49.171875 74.21875 56.984375 64.375 
Q 64.796875 54.546875 64.796875 36.375 
z
" id="DejaVuSans-Bold-48"/>
    </defs>
    <g style="fill:#0091b6;" transform="translate(371.788446 109.1544)scale(0.14 -0.14)">
     <use xlink:href="#DejaVuSans-Bold-116"/>
     <use x="47.802734" xlink:href="#DejaVuSans-Bold-104"/>
     <use x="118.994141" xlink:href="#DejaVuSans-Bold-114"/>
     <use x="168.310547" xlink:href="#DejaVuSans-Bold-101"/>
     <use x="236.132812" xlink:href="#DejaVuSans-Bold-115"/>
     <use x="295.654297" xlink:href="#DejaVuSans-Bold-104"/>
     <use x="366.845703" xlink:href="#DejaVuSans-Bold-111"/>
     <use x="435.546875" xlink:href="#DejaVuSans-Bold-108"/>
     <use x="469.824219" xlink:href="#DejaVuSans-Bold-100"/>
     <use x="541.40625" xlink:href="#DejaVuSans-Bold-105"/>
     <use x="575.683594" xlink:href="#DejaVuSans-Bold-110"/>
     <use x="646.875" xlink:href="#DejaVuSans-Bold-103"/>
     <use x="718.457031" xlink:href="#DejaVuSans-Bold-44"/>
     <use x="756.445312" xlink:href="#DejaVuSans-Bold-32"/>
     <use x="791.259766" xlink:href="#DejaVuSans-Bold-107"/>
     <use x="857.763672" xlink:href="#DejaVuSans-Bold-61"/>
     <use x="941.552734" xlink:href="#DejaVuSans-Bold-49"/>
     <use x="1011.132812" xlink:href="#DejaVuSans-Bold-48"/>
     <use x="1080.712891" xlink:href="#DejaVuSans-Bold-48"/>
    </g>
   </g>
  </g>
 </g>
 <defs>
  <clipPath id="p94bef99886">
   <rect height="488.04" width="292.65716" x="67.425" y="14.8"/>
  </clipPath>
 </defs>
</svg>
