<?xml version="1.0" encoding="utf-8" standalone="no"?>
<!DOCTYPE svg PUBLIC "-//W3C//DTD SVG 1.1//EN"
  "http://www.w3.org/Graphics/SVG/1.1/DTD/svg11.dtd">
<!-- Created with matplotlib (https://matplotlib.org/) -->
<svg height="548.64pt" version="1.1" viewBox="0 0 548.64 548.64" width="548.64pt" xmlns="http://www.w3.org/2000/svg" xmlns:xlink="http://www.w3.org/1999/xlink">
 <defs>
  <style type="text/css">
*{stroke-linecap:butt;stroke-linejoin:round;}
  </style>
 </defs>
 <g id="figure_1">
  <g id="patch_1">
   <path d="M 0 548.64 
L 548.64 548.64 
L 548.64 0 
L 0 0 
z
" style="fill:#ffffff;"/>
  </g>
  <g id="axes_1">
   <g id="patch_2">
    <path d="M 67.425 502.84 
L 360.08216 502.84 
L 360.08216 14.8 
L 67.425 14.8 
z
" style="fill:#ffffff;"/>
   </g>
   <g id="matplotlib.axis_1">
    <g id="xtick_1">
     <g id="line2d_1">
      <defs>
       <path d="M 0 0 
L 0 3.5 
" id="m479fc9396f" style="stroke:#000000;stroke-width:0.8;"/>
      </defs>
      <g>
       <use style="stroke:#000000;stroke-width:0.8;" x="67.425" xlink:href="#m479fc9396f" y="502.84"/>
      </g>
     </g>
     <g id="text_1">
      <!-- 0 -->
      <defs>
       <path d="M 31.78125 66.40625 
Q 24.171875 66.40625 20.328125 58.90625 
Q 16.5 51.421875 16.5 36.375 
Q 16.5 21.390625 20.328125 13.890625 
Q 24.171875 6.390625 31.78125 6.390625 
Q 39.453125 6.390625 43.28125 13.890625 
Q 47.125 21.390625 47.125 36.375 
Q 47.125 51.421875 43.28125 58.90625 
Q 39.453125 66.40625 31.78125 66.40625 
z
M 31.78125 74.21875 
Q 44.046875 74.21875 50.515625 64.515625 
Q 56.984375 54.828125 56.984375 36.375 
Q 56.984375 17.96875 50.515625 8.265625 
Q 44.046875 -1.421875 31.78125 -1.421875 
Q 19.53125 -1.421875 13.0625 8.265625 
Q 6.59375 17.96875 6.59375 36.375 
Q 6.59375 54.828125 13.0625 64.515625 
Q 19.53125 74.21875 31.78125 74.21875 
z
" id="DejaVuSans-48"/>
      </defs>
      <g transform="translate(62.97125 520.477813)scale(0.14 -0.14)">
       <use xlink:href="#DejaVuSans-48"/>
      </g>
     </g>
    </g>
    <g id="xtick_2">
     <g id="line2d_2">
      <g>
       <use style="stroke:#000000;stroke-width:0.8;" x="164.977387" xlink:href="#m479fc9396f" y="502.84"/>
      </g>
     </g>
     <g id="text_2">
      <!-- 25 -->
      <defs>
       <path d="M 19.1875 8.296875 
L 53.609375 8.296875 
L 53.609375 0 
L 7.328125 0 
L 7.328125 8.296875 
Q 12.9375 14.109375 22.625 23.890625 
Q 32.328125 33.6875 34.8125 36.53125 
Q 39.546875 41.84375 41.421875 45.53125 
Q 43.3125 49.21875 43.3125 52.78125 
Q 43.3125 58.59375 39.234375 62.25 
Q 35.15625 65.921875 28.609375 65.921875 
Q 23.96875 65.921875 18.8125 64.3125 
Q 13.671875 62.703125 7.8125 59.421875 
L 7.8125 69.390625 
Q 13.765625 71.78125 18.9375 73 
Q 24.125 74.21875 28.421875 74.21875 
Q 39.75 74.21875 46.484375 68.546875 
Q 53.21875 62.890625 53.21875 53.421875 
Q 53.21875 48.921875 51.53125 44.890625 
Q 49.859375 40.875 45.40625 35.40625 
Q 44.1875 33.984375 37.640625 27.21875 
Q 31.109375 20.453125 19.1875 8.296875 
z
" id="DejaVuSans-50"/>
       <path d="M 10.796875 72.90625 
L 49.515625 72.90625 
L 49.515625 64.59375 
L 19.828125 64.59375 
L 19.828125 46.734375 
Q 21.96875 47.46875 24.109375 47.828125 
Q 26.265625 48.1875 28.421875 48.1875 
Q 40.625 48.1875 47.75 41.5 
Q 54.890625 34.8125 54.890625 23.390625 
Q 54.890625 11.625 47.5625 5.09375 
Q 40.234375 -1.421875 26.90625 -1.421875 
Q 22.3125 -1.421875 17.546875 -0.640625 
Q 12.796875 0.140625 7.71875 1.703125 
L 7.71875 11.625 
Q 12.109375 9.234375 16.796875 8.0625 
Q 21.484375 6.890625 26.703125 6.890625 
Q 35.15625 6.890625 40.078125 11.328125 
Q 45.015625 15.765625 45.015625 23.390625 
Q 45.015625 31 40.078125 35.4375 
Q 35.15625 39.890625 26.703125 39.890625 
Q 22.75 39.890625 18.8125 39.015625 
Q 14.890625 38.140625 10.796875 36.28125 
z
" id="DejaVuSans-53"/>
      </defs>
      <g transform="translate(156.069887 520.477813)scale(0.14 -0.14)">
       <use xlink:href="#DejaVuSans-50"/>
       <use x="63.623047" xlink:href="#DejaVuSans-53"/>
      </g>
     </g>
    </g>
    <g id="xtick_3">
     <g id="line2d_3">
      <g>
       <use style="stroke:#000000;stroke-width:0.8;" x="262.529773" xlink:href="#m479fc9396f" y="502.84"/>
      </g>
     </g>
     <g id="text_3">
      <!-- 50 -->
      <g transform="translate(253.622273 520.477813)scale(0.14 -0.14)">
       <use xlink:href="#DejaVuSans-53"/>
       <use x="63.623047" xlink:href="#DejaVuSans-48"/>
      </g>
     </g>
    </g>
    <g id="xtick_4">
     <g id="line2d_4">
      <g>
       <use style="stroke:#000000;stroke-width:0.8;" x="360.08216" xlink:href="#m479fc9396f" y="502.84"/>
      </g>
     </g>
     <g id="text_4">
      <!-- 75 -->
      <defs>
       <path d="M 8.203125 72.90625 
L 55.078125 72.90625 
L 55.078125 68.703125 
L 28.609375 0 
L 18.3125 0 
L 43.21875 64.59375 
L 8.203125 64.59375 
z
" id="DejaVuSans-55"/>
      </defs>
      <g transform="translate(351.17466 520.477813)scale(0.14 -0.14)">
       <use xlink:href="#DejaVuSans-55"/>
       <use x="63.623047" xlink:href="#DejaVuSans-53"/>
      </g>
     </g>
    </g>
    <g id="text_5">
     <!-- Points labeled after data deletion -->
     <defs>
      <path d="M 9.1875 72.90625 
L 40.375 72.90625 
Q 54.296875 72.90625 61.734375 66.71875 
Q 69.1875 60.546875 69.1875 49.125 
Q 69.1875 37.640625 61.734375 31.46875 
Q 54.296875 25.296875 40.375 25.296875 
L 27.984375 25.296875 
L 27.984375 0 
L 9.1875 0 
z
M 27.984375 59.28125 
L 27.984375 38.921875 
L 38.375 38.921875 
Q 43.84375 38.921875 46.828125 41.578125 
Q 49.8125 44.234375 49.8125 49.125 
Q 49.8125 54 46.828125 56.640625 
Q 43.84375 59.28125 38.375 59.28125 
z
" id="DejaVuSans-Bold-80"/>
      <path d="M 34.421875 43.5 
Q 28.609375 43.5 25.5625 39.328125 
Q 22.515625 35.15625 22.515625 27.296875 
Q 22.515625 19.4375 25.5625 15.25 
Q 28.609375 11.078125 34.421875 11.078125 
Q 40.140625 11.078125 43.15625 15.25 
Q 46.1875 19.4375 46.1875 27.296875 
Q 46.1875 35.15625 43.15625 39.328125 
Q 40.140625 43.5 34.421875 43.5 
z
M 34.421875 56 
Q 48.53125 56 56.46875 48.375 
Q 64.40625 40.765625 64.40625 27.296875 
Q 64.40625 13.8125 56.46875 6.1875 
Q 48.53125 -1.421875 34.421875 -1.421875 
Q 20.265625 -1.421875 12.28125 6.1875 
Q 4.296875 13.8125 4.296875 27.296875 
Q 4.296875 40.765625 12.28125 48.375 
Q 20.265625 56 34.421875 56 
z
" id="DejaVuSans-Bold-111"/>
      <path d="M 8.40625 54.6875 
L 25.875 54.6875 
L 25.875 0 
L 8.40625 0 
z
M 8.40625 75.984375 
L 25.875 75.984375 
L 25.875 61.71875 
L 8.40625 61.71875 
z
" id="DejaVuSans-Bold-105"/>
      <path d="M 63.375 33.296875 
L 63.375 0 
L 45.796875 0 
L 45.796875 5.421875 
L 45.796875 25.484375 
Q 45.796875 32.5625 45.484375 35.25 
Q 45.171875 37.9375 44.390625 39.203125 
Q 43.359375 40.921875 41.59375 41.875 
Q 39.84375 42.828125 37.59375 42.828125 
Q 32.125 42.828125 29 38.59375 
Q 25.875 34.375 25.875 26.90625 
L 25.875 0 
L 8.40625 0 
L 8.40625 54.6875 
L 25.875 54.6875 
L 25.875 46.6875 
Q 29.828125 51.46875 34.265625 53.734375 
Q 38.71875 56 44.09375 56 
Q 53.5625 56 58.46875 50.1875 
Q 63.375 44.390625 63.375 33.296875 
z
" id="DejaVuSans-Bold-110"/>
      <path d="M 27.484375 70.21875 
L 27.484375 54.6875 
L 45.515625 54.6875 
L 45.515625 42.1875 
L 27.484375 42.1875 
L 27.484375 19 
Q 27.484375 15.1875 29 13.84375 
Q 30.515625 12.5 35.015625 12.5 
L 44 12.5 
L 44 0 
L 29 0 
Q 18.65625 0 14.328125 4.3125 
Q 10.015625 8.640625 10.015625 19 
L 10.015625 42.1875 
L 1.3125 42.1875 
L 1.3125 54.6875 
L 10.015625 54.6875 
L 10.015625 70.21875 
z
" id="DejaVuSans-Bold-116"/>
      <path d="M 51.125 52.984375 
L 51.125 39.703125 
Q 45.515625 42.046875 40.28125 43.21875 
Q 35.0625 44.390625 30.421875 44.390625 
Q 25.4375 44.390625 23.015625 43.140625 
Q 20.609375 41.890625 20.609375 39.3125 
Q 20.609375 37.203125 22.4375 36.078125 
Q 24.265625 34.96875 29 34.421875 
L 32.078125 33.984375 
Q 45.515625 32.28125 50.140625 28.375 
Q 54.78125 24.46875 54.78125 16.109375 
Q 54.78125 7.375 48.328125 2.96875 
Q 41.890625 -1.421875 29.109375 -1.421875 
Q 23.6875 -1.421875 17.890625 -0.5625 
Q 12.109375 0.296875 6 2 
L 6 15.28125 
Q 11.234375 12.75 16.71875 11.46875 
Q 22.21875 10.203125 27.875 10.203125 
Q 33.015625 10.203125 35.59375 11.609375 
Q 38.1875 13.03125 38.1875 15.828125 
Q 38.1875 18.171875 36.40625 19.3125 
Q 34.625 20.453125 29.296875 21.09375 
L 26.21875 21.484375 
Q 14.546875 22.953125 9.859375 26.90625 
Q 5.171875 30.859375 5.171875 38.921875 
Q 5.171875 47.609375 11.125 51.796875 
Q 17.09375 56 29.390625 56 
Q 34.234375 56 39.546875 55.265625 
Q 44.875 54.546875 51.125 52.984375 
z
" id="DejaVuSans-Bold-115"/>
      <path id="DejaVuSans-Bold-32"/>
      <path d="M 8.40625 75.984375 
L 25.875 75.984375 
L 25.875 0 
L 8.40625 0 
z
" id="DejaVuSans-Bold-108"/>
      <path d="M 32.90625 24.609375 
Q 27.4375 24.609375 24.671875 22.75 
Q 21.921875 20.90625 21.921875 17.28125 
Q 21.921875 13.96875 24.140625 12.078125 
Q 26.375 10.203125 30.328125 10.203125 
Q 35.25 10.203125 38.625 13.734375 
Q 42 17.28125 42 22.609375 
L 42 24.609375 
z
M 59.625 31.203125 
L 59.625 0 
L 42 0 
L 42 8.109375 
Q 38.484375 3.125 34.078125 0.84375 
Q 29.6875 -1.421875 23.390625 -1.421875 
Q 14.890625 -1.421875 9.59375 3.53125 
Q 4.296875 8.5 4.296875 16.40625 
Q 4.296875 26.03125 10.90625 30.515625 
Q 17.53125 35.015625 31.6875 35.015625 
L 42 35.015625 
L 42 36.375 
Q 42 40.53125 38.71875 42.453125 
Q 35.453125 44.390625 28.515625 44.390625 
Q 22.90625 44.390625 18.0625 43.265625 
Q 13.234375 42.140625 9.078125 39.890625 
L 9.078125 53.21875 
Q 14.703125 54.59375 20.359375 55.296875 
Q 26.03125 56 31.6875 56 
Q 46.484375 56 53.046875 50.171875 
Q 59.625 44.34375 59.625 31.203125 
z
" id="DejaVuSans-Bold-97"/>
      <path d="M 37.5 11.28125 
Q 43.109375 11.28125 46.0625 15.375 
Q 49.03125 19.484375 49.03125 27.296875 
Q 49.03125 35.109375 46.0625 39.203125 
Q 43.109375 43.3125 37.5 43.3125 
Q 31.890625 43.3125 28.875 39.1875 
Q 25.875 35.0625 25.875 27.296875 
Q 25.875 19.53125 28.875 15.40625 
Q 31.890625 11.28125 37.5 11.28125 
z
M 25.875 46.6875 
Q 29.5 51.46875 33.890625 53.734375 
Q 38.28125 56 44 56 
Q 54.109375 56 60.59375 47.96875 
Q 67.09375 39.9375 67.09375 27.296875 
Q 67.09375 14.65625 60.59375 6.609375 
Q 54.109375 -1.421875 44 -1.421875 
Q 38.28125 -1.421875 33.890625 0.84375 
Q 29.5 3.125 25.875 7.90625 
L 25.875 0 
L 8.40625 0 
L 8.40625 75.984375 
L 25.875 75.984375 
z
" id="DejaVuSans-Bold-98"/>
      <path d="M 62.984375 27.484375 
L 62.984375 22.515625 
L 22.125 22.515625 
Q 22.75 16.359375 26.5625 13.28125 
Q 30.375 10.203125 37.203125 10.203125 
Q 42.71875 10.203125 48.5 11.84375 
Q 54.296875 13.484375 60.40625 16.796875 
L 60.40625 3.328125 
Q 54.203125 0.984375 48 -0.21875 
Q 41.796875 -1.421875 35.59375 -1.421875 
Q 20.75 -1.421875 12.515625 6.125 
Q 4.296875 13.671875 4.296875 27.296875 
Q 4.296875 40.671875 12.375 48.328125 
Q 20.453125 56 34.625 56 
Q 47.515625 56 55.25 48.234375 
Q 62.984375 40.484375 62.984375 27.484375 
z
M 45.015625 33.296875 
Q 45.015625 38.28125 42.109375 41.328125 
Q 39.203125 44.390625 34.515625 44.390625 
Q 29.4375 44.390625 26.265625 41.53125 
Q 23.09375 38.671875 22.3125 33.296875 
z
" id="DejaVuSans-Bold-101"/>
      <path d="M 45.609375 46.6875 
L 45.609375 75.984375 
L 63.1875 75.984375 
L 63.1875 0 
L 45.609375 0 
L 45.609375 7.90625 
Q 42 3.078125 37.640625 0.828125 
Q 33.296875 -1.421875 27.59375 -1.421875 
Q 17.484375 -1.421875 10.984375 6.609375 
Q 4.5 14.65625 4.5 27.296875 
Q 4.5 39.9375 10.984375 47.96875 
Q 17.484375 56 27.59375 56 
Q 33.25 56 37.625 53.734375 
Q 42 51.46875 45.609375 46.6875 
z
M 34.078125 11.28125 
Q 39.703125 11.28125 42.65625 15.375 
Q 45.609375 19.484375 45.609375 27.296875 
Q 45.609375 35.109375 42.65625 39.203125 
Q 39.703125 43.3125 34.078125 43.3125 
Q 28.515625 43.3125 25.5625 39.203125 
Q 22.609375 35.109375 22.609375 27.296875 
Q 22.609375 19.484375 25.5625 15.375 
Q 28.515625 11.28125 34.078125 11.28125 
z
" id="DejaVuSans-Bold-100"/>
      <path d="M 44.390625 75.984375 
L 44.390625 64.5 
L 34.71875 64.5 
Q 31 64.5 29.53125 63.15625 
Q 28.078125 61.8125 28.078125 58.5 
L 28.078125 54.6875 
L 43.015625 54.6875 
L 43.015625 42.1875 
L 28.078125 42.1875 
L 28.078125 0 
L 10.59375 0 
L 10.59375 42.1875 
L 1.90625 42.1875 
L 1.90625 54.6875 
L 10.59375 54.6875 
L 10.59375 58.5 
Q 10.59375 67.4375 15.578125 71.703125 
Q 20.5625 75.984375 31 75.984375 
z
" id="DejaVuSans-Bold-102"/>
      <path d="M 49.03125 39.796875 
Q 46.734375 40.875 44.453125 41.375 
Q 42.1875 41.890625 39.890625 41.890625 
Q 33.15625 41.890625 29.515625 37.5625 
Q 25.875 33.25 25.875 25.203125 
L 25.875 0 
L 8.40625 0 
L 8.40625 54.6875 
L 25.875 54.6875 
L 25.875 45.703125 
Q 29.25 51.078125 33.609375 53.53125 
Q 37.984375 56 44.09375 56 
Q 44.96875 56 45.984375 55.921875 
Q 47.015625 55.859375 48.96875 55.609375 
z
" id="DejaVuSans-Bold-114"/>
     </defs>
     <g transform="translate(80.568736 538.027187)scale(0.14 -0.14)">
      <use xlink:href="#DejaVuSans-Bold-80"/>
      <use x="73.291016" xlink:href="#DejaVuSans-Bold-111"/>
      <use x="141.992188" xlink:href="#DejaVuSans-Bold-105"/>
      <use x="176.269531" xlink:href="#DejaVuSans-Bold-110"/>
      <use x="247.460938" xlink:href="#DejaVuSans-Bold-116"/>
      <use x="295.263672" xlink:href="#DejaVuSans-Bold-115"/>
      <use x="354.785156" xlink:href="#DejaVuSans-Bold-32"/>
      <use x="389.599609" xlink:href="#DejaVuSans-Bold-108"/>
      <use x="423.876953" xlink:href="#DejaVuSans-Bold-97"/>
      <use x="491.357422" xlink:href="#DejaVuSans-Bold-98"/>
      <use x="562.939453" xlink:href="#DejaVuSans-Bold-101"/>
      <use x="630.761719" xlink:href="#DejaVuSans-Bold-108"/>
      <use x="665.039062" xlink:href="#DejaVuSans-Bold-101"/>
      <use x="732.861328" xlink:href="#DejaVuSans-Bold-100"/>
      <use x="804.443359" xlink:href="#DejaVuSans-Bold-32"/>
      <use x="839.257812" xlink:href="#DejaVuSans-Bold-97"/>
      <use x="906.738281" xlink:href="#DejaVuSans-Bold-102"/>
      <use x="950.244141" xlink:href="#DejaVuSans-Bold-116"/>
      <use x="998.046875" xlink:href="#DejaVuSans-Bold-101"/>
      <use x="1065.869141" xlink:href="#DejaVuSans-Bold-114"/>
      <use x="1115.185547" xlink:href="#DejaVuSans-Bold-32"/>
      <use x="1150" xlink:href="#DejaVuSans-Bold-100"/>
      <use x="1221.582031" xlink:href="#DejaVuSans-Bold-97"/>
      <use x="1289.0625" xlink:href="#DejaVuSans-Bold-116"/>
      <use x="1336.865234" xlink:href="#DejaVuSans-Bold-97"/>
      <use x="1404.345703" xlink:href="#DejaVuSans-Bold-32"/>
      <use x="1439.160156" xlink:href="#DejaVuSans-Bold-100"/>
      <use x="1510.742188" xlink:href="#DejaVuSans-Bold-101"/>
      <use x="1578.564453" xlink:href="#DejaVuSans-Bold-108"/>
      <use x="1612.841797" xlink:href="#DejaVuSans-Bold-101"/>
      <use x="1680.664062" xlink:href="#DejaVuSans-Bold-116"/>
      <use x="1728.466797" xlink:href="#DejaVuSans-Bold-105"/>
      <use x="1762.744141" xlink:href="#DejaVuSans-Bold-111"/>
      <use x="1831.445312" xlink:href="#DejaVuSans-Bold-110"/>
     </g>
    </g>
   </g>
   <g id="matplotlib.axis_2">
    <g id="ytick_1">
     <g id="line2d_5">
      <defs>
       <path d="M 0 0 
L -3.5 0 
" id="m7fe2092d5b" style="stroke:#000000;stroke-width:0.8;"/>
      </defs>
      <g>
       <use style="stroke:#000000;stroke-width:0.8;" x="67.425" xlink:href="#m7fe2092d5b" y="502.84"/>
      </g>
     </g>
     <g id="text_6">
      <!-- 82% -->
      <defs>
       <path d="M 31.78125 34.625 
Q 24.75 34.625 20.71875 30.859375 
Q 16.703125 27.09375 16.703125 20.515625 
Q 16.703125 13.921875 20.71875 10.15625 
Q 24.75 6.390625 31.78125 6.390625 
Q 38.8125 6.390625 42.859375 10.171875 
Q 46.921875 13.96875 46.921875 20.515625 
Q 46.921875 27.09375 42.890625 30.859375 
Q 38.875 34.625 31.78125 34.625 
z
M 21.921875 38.8125 
Q 15.578125 40.375 12.03125 44.71875 
Q 8.5 49.078125 8.5 55.328125 
Q 8.5 64.0625 14.71875 69.140625 
Q 20.953125 74.21875 31.78125 74.21875 
Q 42.671875 74.21875 48.875 69.140625 
Q 55.078125 64.0625 55.078125 55.328125 
Q 55.078125 49.078125 51.53125 44.71875 
Q 48 40.375 41.703125 38.8125 
Q 48.828125 37.15625 52.796875 32.3125 
Q 56.78125 27.484375 56.78125 20.515625 
Q 56.78125 9.90625 50.3125 4.234375 
Q 43.84375 -1.421875 31.78125 -1.421875 
Q 19.734375 -1.421875 13.25 4.234375 
Q 6.78125 9.90625 6.78125 20.515625 
Q 6.78125 27.484375 10.78125 32.3125 
Q 14.796875 37.15625 21.921875 38.8125 
z
M 18.3125 54.390625 
Q 18.3125 48.734375 21.84375 45.5625 
Q 25.390625 42.390625 31.78125 42.390625 
Q 38.140625 42.390625 41.71875 45.5625 
Q 45.3125 48.734375 45.3125 54.390625 
Q 45.3125 60.0625 41.71875 63.234375 
Q 38.140625 66.40625 31.78125 66.40625 
Q 25.390625 66.40625 21.84375 63.234375 
Q 18.3125 60.0625 18.3125 54.390625 
z
" id="DejaVuSans-56"/>
       <path d="M 72.703125 32.078125 
Q 68.453125 32.078125 66.03125 28.46875 
Q 63.625 24.859375 63.625 18.40625 
Q 63.625 12.0625 66.03125 8.421875 
Q 68.453125 4.78125 72.703125 4.78125 
Q 76.859375 4.78125 79.265625 8.421875 
Q 81.6875 12.0625 81.6875 18.40625 
Q 81.6875 24.8125 79.265625 28.4375 
Q 76.859375 32.078125 72.703125 32.078125 
z
M 72.703125 38.28125 
Q 80.421875 38.28125 84.953125 32.90625 
Q 89.5 27.546875 89.5 18.40625 
Q 89.5 9.28125 84.9375 3.921875 
Q 80.375 -1.421875 72.703125 -1.421875 
Q 64.890625 -1.421875 60.34375 3.921875 
Q 55.8125 9.28125 55.8125 18.40625 
Q 55.8125 27.59375 60.375 32.9375 
Q 64.9375 38.28125 72.703125 38.28125 
z
M 22.3125 68.015625 
Q 18.109375 68.015625 15.6875 64.375 
Q 13.28125 60.75 13.28125 54.390625 
Q 13.28125 47.953125 15.671875 44.328125 
Q 18.0625 40.71875 22.3125 40.71875 
Q 26.5625 40.71875 28.96875 44.328125 
Q 31.390625 47.953125 31.390625 54.390625 
Q 31.390625 60.6875 28.953125 64.34375 
Q 26.515625 68.015625 22.3125 68.015625 
z
M 66.40625 74.21875 
L 74.21875 74.21875 
L 28.609375 -1.421875 
L 20.796875 -1.421875 
z
M 22.3125 74.21875 
Q 30.03125 74.21875 34.609375 68.875 
Q 39.203125 63.53125 39.203125 54.390625 
Q 39.203125 45.171875 34.640625 39.84375 
Q 30.078125 34.515625 22.3125 34.515625 
Q 14.546875 34.515625 10.03125 39.859375 
Q 5.515625 45.21875 5.515625 54.390625 
Q 5.515625 63.484375 10.046875 68.84375 
Q 14.59375 74.21875 22.3125 74.21875 
z
" id="DejaVuSans-37"/>
      </defs>
      <g transform="translate(29.307813 508.158906)scale(0.14 -0.14)">
       <use xlink:href="#DejaVuSans-56"/>
       <use x="63.623047" xlink:href="#DejaVuSans-50"/>
       <use x="127.246094" xlink:href="#DejaVuSans-37"/>
      </g>
     </g>
    </g>
    <g id="ytick_2">
     <g id="line2d_6">
      <g>
       <use style="stroke:#000000;stroke-width:0.8;" x="67.425" xlink:href="#m7fe2092d5b" y="380.83"/>
      </g>
     </g>
     <g id="text_7">
      <!-- 83% -->
      <defs>
       <path d="M 40.578125 39.3125 
Q 47.65625 37.796875 51.625 33 
Q 55.609375 28.21875 55.609375 21.1875 
Q 55.609375 10.40625 48.1875 4.484375 
Q 40.765625 -1.421875 27.09375 -1.421875 
Q 22.515625 -1.421875 17.65625 -0.515625 
Q 12.796875 0.390625 7.625 2.203125 
L 7.625 11.71875 
Q 11.71875 9.328125 16.59375 8.109375 
Q 21.484375 6.890625 26.8125 6.890625 
Q 36.078125 6.890625 40.9375 10.546875 
Q 45.796875 14.203125 45.796875 21.1875 
Q 45.796875 27.640625 41.28125 31.265625 
Q 36.765625 34.90625 28.71875 34.90625 
L 20.21875 34.90625 
L 20.21875 43.015625 
L 29.109375 43.015625 
Q 36.375 43.015625 40.234375 45.921875 
Q 44.09375 48.828125 44.09375 54.296875 
Q 44.09375 59.90625 40.109375 62.90625 
Q 36.140625 65.921875 28.71875 65.921875 
Q 24.65625 65.921875 20.015625 65.03125 
Q 15.375 64.15625 9.8125 62.3125 
L 9.8125 71.09375 
Q 15.4375 72.65625 20.34375 73.4375 
Q 25.25 74.21875 29.59375 74.21875 
Q 40.828125 74.21875 47.359375 69.109375 
Q 53.90625 64.015625 53.90625 55.328125 
Q 53.90625 49.265625 50.4375 45.09375 
Q 46.96875 40.921875 40.578125 39.3125 
z
" id="DejaVuSans-51"/>
      </defs>
      <g transform="translate(29.307813 386.148906)scale(0.14 -0.14)">
       <use xlink:href="#DejaVuSans-56"/>
       <use x="63.623047" xlink:href="#DejaVuSans-51"/>
       <use x="127.246094" xlink:href="#DejaVuSans-37"/>
      </g>
     </g>
    </g>
    <g id="ytick_3">
     <g id="line2d_7">
      <g>
       <use style="stroke:#000000;stroke-width:0.8;" x="67.425" xlink:href="#m7fe2092d5b" y="258.82"/>
      </g>
     </g>
     <g id="text_8">
      <!-- 84% -->
      <defs>
       <path d="M 37.796875 64.3125 
L 12.890625 25.390625 
L 37.796875 25.390625 
z
M 35.203125 72.90625 
L 47.609375 72.90625 
L 47.609375 25.390625 
L 58.015625 25.390625 
L 58.015625 17.1875 
L 47.609375 17.1875 
L 47.609375 0 
L 37.796875 0 
L 37.796875 17.1875 
L 4.890625 17.1875 
L 4.890625 26.703125 
z
" id="DejaVuSans-52"/>
      </defs>
      <g transform="translate(29.307813 264.138906)scale(0.14 -0.14)">
       <use xlink:href="#DejaVuSans-56"/>
       <use x="63.623047" xlink:href="#DejaVuSans-52"/>
       <use x="127.246094" xlink:href="#DejaVuSans-37"/>
      </g>
     </g>
    </g>
    <g id="ytick_4">
     <g id="line2d_8">
      <g>
       <use style="stroke:#000000;stroke-width:0.8;" x="67.425" xlink:href="#m7fe2092d5b" y="136.81"/>
      </g>
     </g>
     <g id="text_9">
      <!-- 85% -->
      <g transform="translate(29.307813 142.128906)scale(0.14 -0.14)">
       <use xlink:href="#DejaVuSans-56"/>
       <use x="63.623047" xlink:href="#DejaVuSans-53"/>
       <use x="127.246094" xlink:href="#DejaVuSans-37"/>
      </g>
     </g>
    </g>
    <g id="ytick_5">
     <g id="line2d_9">
      <g>
       <use style="stroke:#000000;stroke-width:0.8;" x="67.425" xlink:href="#m7fe2092d5b" y="14.8"/>
      </g>
     </g>
     <g id="text_10">
      <!-- 86% -->
      <defs>
       <path d="M 33.015625 40.375 
Q 26.375 40.375 22.484375 35.828125 
Q 18.609375 31.296875 18.609375 23.390625 
Q 18.609375 15.53125 22.484375 10.953125 
Q 26.375 6.390625 33.015625 6.390625 
Q 39.65625 6.390625 43.53125 10.953125 
Q 47.40625 15.53125 47.40625 23.390625 
Q 47.40625 31.296875 43.53125 35.828125 
Q 39.65625 40.375 33.015625 40.375 
z
M 52.59375 71.296875 
L 52.59375 62.3125 
Q 48.875 64.0625 45.09375 64.984375 
Q 41.3125 65.921875 37.59375 65.921875 
Q 27.828125 65.921875 22.671875 59.328125 
Q 17.53125 52.734375 16.796875 39.40625 
Q 19.671875 43.65625 24.015625 45.921875 
Q 28.375 48.1875 33.59375 48.1875 
Q 44.578125 48.1875 50.953125 41.515625 
Q 57.328125 34.859375 57.328125 23.390625 
Q 57.328125 12.15625 50.6875 5.359375 
Q 44.046875 -1.421875 33.015625 -1.421875 
Q 20.359375 -1.421875 13.671875 8.265625 
Q 6.984375 17.96875 6.984375 36.375 
Q 6.984375 53.65625 15.1875 63.9375 
Q 23.390625 74.21875 37.203125 74.21875 
Q 40.921875 74.21875 44.703125 73.484375 
Q 48.484375 72.75 52.59375 71.296875 
z
" id="DejaVuSans-54"/>
      </defs>
      <g transform="translate(29.307813 20.118906)scale(0.14 -0.14)">
       <use xlink:href="#DejaVuSans-56"/>
       <use x="63.623047" xlink:href="#DejaVuSans-54"/>
       <use x="127.246094" xlink:href="#DejaVuSans-37"/>
      </g>
     </g>
    </g>
    <g id="text_11">
     <!-- Model consistency -->
     <defs>
      <path d="M 9.1875 72.90625 
L 33.109375 72.90625 
L 49.703125 33.890625 
L 66.40625 72.90625 
L 90.28125 72.90625 
L 90.28125 0 
L 72.515625 0 
L 72.515625 53.328125 
L 55.71875 14.015625 
L 43.796875 14.015625 
L 27 53.328125 
L 27 0 
L 9.1875 0 
z
" id="DejaVuSans-Bold-77"/>
      <path d="M 52.59375 52.984375 
L 52.59375 38.71875 
Q 49.03125 41.15625 45.4375 42.328125 
Q 41.84375 43.5 37.984375 43.5 
Q 30.671875 43.5 26.59375 39.234375 
Q 22.515625 34.96875 22.515625 27.296875 
Q 22.515625 19.625 26.59375 15.34375 
Q 30.671875 11.078125 37.984375 11.078125 
Q 42.09375 11.078125 45.78125 12.296875 
Q 49.46875 13.53125 52.59375 15.921875 
L 52.59375 1.609375 
Q 48.484375 0.09375 44.265625 -0.65625 
Q 40.046875 -1.421875 35.796875 -1.421875 
Q 21 -1.421875 12.640625 6.171875 
Q 4.296875 13.765625 4.296875 27.296875 
Q 4.296875 40.828125 12.640625 48.40625 
Q 21 56 35.796875 56 
Q 40.09375 56 44.265625 55.25 
Q 48.4375 54.5 52.59375 52.984375 
z
" id="DejaVuSans-Bold-99"/>
      <path d="M 1.21875 54.6875 
L 18.703125 54.6875 
L 33.40625 17.578125 
L 45.90625 54.6875 
L 63.375 54.6875 
L 40.375 -5.171875 
Q 36.921875 -14.3125 32.296875 -17.9375 
Q 27.6875 -21.578125 20.125 -21.578125 
L 10.015625 -21.578125 
L 10.015625 -10.109375 
L 15.484375 -10.109375 
Q 19.921875 -10.109375 21.9375 -8.6875 
Q 23.96875 -7.28125 25.09375 -3.609375 
L 25.59375 -2.09375 
z
" id="DejaVuSans-Bold-121"/>
     </defs>
     <g transform="translate(22.286875 331.653906)rotate(-90)scale(0.14 -0.14)">
      <use xlink:href="#DejaVuSans-Bold-77"/>
      <use x="99.511719" xlink:href="#DejaVuSans-Bold-111"/>
      <use x="168.212891" xlink:href="#DejaVuSans-Bold-100"/>
      <use x="239.794922" xlink:href="#DejaVuSans-Bold-101"/>
      <use x="307.617188" xlink:href="#DejaVuSans-Bold-108"/>
      <use x="341.894531" xlink:href="#DejaVuSans-Bold-32"/>
      <use x="376.708984" xlink:href="#DejaVuSans-Bold-99"/>
      <use x="435.986328" xlink:href="#DejaVuSans-Bold-111"/>
      <use x="504.6875" xlink:href="#DejaVuSans-Bold-110"/>
      <use x="575.878906" xlink:href="#DejaVuSans-Bold-115"/>
      <use x="635.400391" xlink:href="#DejaVuSans-Bold-105"/>
      <use x="669.677734" xlink:href="#DejaVuSans-Bold-115"/>
      <use x="729.199219" xlink:href="#DejaVuSans-Bold-116"/>
      <use x="777.001953" xlink:href="#DejaVuSans-Bold-101"/>
      <use x="844.824219" xlink:href="#DejaVuSans-Bold-110"/>
      <use x="916.015625" xlink:href="#DejaVuSans-Bold-99"/>
      <use x="975.292969" xlink:href="#DejaVuSans-Bold-121"/>
     </g>
    </g>
   </g>
   <g id="line2d_10">
    <path clip-path="url(#pc9523a666b)" d="M 223.508819 502.84 
L 223.508819 14.8 
" style="fill:none;stroke:#808080;stroke-dasharray:1.5,2.475;stroke-dashoffset:0;stroke-opacity:0.5;stroke-width:1.5;"/>
   </g>
   <g id="line2d_11">
    <path clip-path="url(#pc9523a666b)" d="M 67.425 186.4274 
L 71.327095 165.279 
L 75.229191 189.681 
L 83.033382 253.1262 
L 86.935477 262.0736 
L 90.837573 270.2076 
L 94.739668 286.4756 
L 98.641764 284.8488 
L 102.543859 279.9684 
L 106.445955 285.6622 
L 110.34805 314.9446 
L 114.250146 327.959 
L 118.152241 337.7198 
L 122.054337 336.093 
L 125.956432 355.6146 
L 129.858527 353.9878 
L 133.760623 374.3228 
L 137.662718 358.0548 
L 141.564814 381.6434 
L 145.466909 384.0836 
L 149.369005 360.495 
L 153.2711 356.428 
L 157.173196 371.8826 
L 161.075291 353.9878 
L 164.977387 367.0022 
L 168.879482 364.562 
L 172.781578 371.0692 
L 176.683673 360.495 
L 180.585769 371.8826 
L 184.487864 362.9352 
L 188.389959 361.3084 
L 192.292055 354.8012 
L 196.19415 373.5094 
L 200.096246 393.031 
L 203.998341 382.4568 
L 207.900437 377.5764 
L 211.802532 379.2032 
L 215.704628 367.8156 
L 219.606723 362.1218 
L 223.508819 361.3084 
L 227.410914 362.9352 
L 231.31301 365.3754 
L 235.215105 383.2702 
L 239.117201 384.897 
L 243.019296 367.0022 
L 246.921391 372.696 
L 250.823487 373.5094 
L 254.725582 378.3898 
L 258.627678 387.3372 
L 262.529773 355.6146 
L 266.431869 370.2558 
L 270.333964 363.7486 
L 274.23606 379.2032 
L 278.138155 369.4424 
L 282.040251 382.4568 
L 285.942346 377.5764 
L 289.844442 383.2702 
L 293.746537 385.7104 
L 297.648633 397.098 
L 301.550728 378.3898 
L 305.452823 367.8156 
L 309.354919 359.6816 
L 313.257014 386.5238 
L 321.061205 381.6434 
L 324.963301 366.1888 
L 328.865396 360.495 
L 332.767492 352.361 
L 336.669587 345.0404 
L 340.571683 344.227 
L 344.473778 340.9734 
L 348.375874 329.5858 
L 352.277969 333.6528 
L 356.180065 321.4518 
L 360.08216 314.9446 
L 363.984255 334.4662 
L 367.886351 336.9064 
L 371.788446 336.093 
L 375.690542 337.7198 
L 379.592637 331.2126 
L 383.494733 333.6528 
L 387.396828 326.3322 
L 391.298924 323.0786 
L 395.201019 319.0116 
L 399.103115 333.6528 
L 403.00521 340.16 
L 406.907306 332.026 
L 410.809401 340.9734 
L 414.711497 345.8538 
L 418.613592 359.6816 
L 422.515687 353.9878 
L 426.417783 367.0022 
L 430.319878 363.7486 
L 434.221974 354.8012 
L 438.124069 352.361 
L 442.026165 334.4662 
L 445.92826 340.16 
L 449.830356 343.4136 
L 453.732451 339.3466 
L 457.634547 327.959 
L 461.536642 328.7724 
L 465.438738 333.6528 
L 469.340833 332.8394 
L 473.242929 334.4662 
L 477.145024 343.4136 
L 481.047119 329.5858 
L 484.949215 326.3322 
L 488.85131 331.2126 
L 492.753406 316.5714 
L 496.655501 314.9446 
L 500.557597 327.959 
L 504.459692 335.2796 
L 508.361788 334.4662 
L 512.263883 339.3466 
L 516.165979 349.1074 
L 520.068074 348.294 
L 523.97017 346.6672 
L 527.872265 338.5332 
L 531.774361 342.6002 
L 535.676456 349.1074 
L 539.578551 357.2414 
L 543.480647 363.7486 
L 547.382742 360.495 
L 549.64 361.43606 
L 549.64 361.43606 
" style="fill:none;stroke:#545454;stroke-linecap:square;stroke-opacity:0.5;"/>
   </g>
   <g id="line2d_12">
    <path clip-path="url(#pc9523a666b)" d="M 75.229191 203.18344 
L 79.131286 218.31268 
L 83.033382 239.2984 
L 86.935477 258.65732 
L 90.837573 271.34636 
L 94.739668 276.7148 
L 98.641764 281.43252 
L 102.543859 290.37992 
L 106.445955 298.6766 
L 110.34805 309.2508 
L 114.250146 320.47572 
L 118.152241 334.4662 
L 122.054337 342.27484 
L 125.956432 351.5476 
L 129.858527 355.6146 
L 133.760623 364.72468 
L 137.662718 370.41848 
L 141.564814 371.71992 
L 145.466909 368.14096 
L 149.369005 370.90652 
L 153.2711 365.3754 
L 157.173196 361.95912 
L 161.075291 362.77252 
L 164.977387 365.70076 
L 168.879482 363.42324 
L 172.781578 367.0022 
L 176.683673 366.1888 
L 180.585769 365.53808 
L 184.487864 362.28448 
L 188.389959 364.88736 
L 192.292055 369.11704 
L 196.19415 373.02136 
L 200.096246 376.27496 
L 203.998341 381.15536 
L 207.900437 380.0166 
L 211.802532 373.83476 
L 215.704628 369.60508 
L 219.606723 366.67684 
L 223.508819 363.91128 
L 227.410914 367.0022 
L 231.31301 371.55724 
L 235.215105 372.696 
L 239.117201 374.64816 
L 243.019296 376.27496 
L 246.921391 375.29888 
L 250.823487 375.78692 
L 254.725582 373.5094 
L 258.627678 373.02136 
L 262.529773 371.0692 
L 266.431869 371.23188 
L 270.333964 367.65292 
L 274.23606 373.02136 
L 278.138155 374.48548 
L 282.040251 378.3898 
L 285.942346 379.69124 
L 289.844442 385.22236 
L 293.746537 384.40896 
L 297.648633 382.4568 
L 301.550728 377.73908 
L 305.452823 377.90176 
L 309.354919 375.29888 
L 313.257014 375.9496 
L 317.15911 375.62424 
L 321.061205 375.78692 
L 324.963301 368.95436 
L 328.865396 361.14572 
L 332.767492 353.66244 
L 336.669587 348.61936 
L 340.571683 342.43752 
L 344.473778 338.69588 
L 348.375874 333.97816 
L 352.277969 328.12168 
L 356.180065 326.82024 
L 360.08216 328.28436 
L 363.984255 328.7724 
L 371.788446 335.2796 
L 375.690542 335.11692 
L 379.592637 333.00208 
L 383.494733 330.3992 
L 387.396828 326.65756 
L 391.298924 327.1456 
L 395.201019 328.44704 
L 399.103115 329.5858 
L 403.00521 333.16476 
L 410.809401 343.73896 
L 414.711497 346.50452 
L 418.613592 353.49976 
L 422.515687 358.0548 
L 426.417783 359.84428 
L 430.319878 358.38016 
L 434.221974 354.47584 
L 438.124069 349.1074 
L 442.026165 345.0404 
L 445.92826 341.94948 
L 449.830356 337.06908 
L 453.732451 335.93032 
L 457.634547 334.62888 
L 461.536642 332.51404 
L 465.438738 331.53796 
L 469.340833 334.62888 
L 473.242929 334.79156 
L 477.145024 333.32744 
L 481.047119 333.00208 
L 484.949215 329.42312 
L 488.85131 323.72932 
L 492.753406 323.40396 
L 496.655501 325.19344 
L 500.557597 325.84416 
L 504.459692 330.3992 
L 508.361788 337.23176 
L 512.263883 341.29876 
L 516.165979 343.57628 
L 520.068074 344.38968 
L 523.97017 345.0404 
L 527.872265 345.0404 
L 531.774361 346.82988 
L 535.676456 350.24616 
L 539.578551 354.63852 
L 543.480647 358.54284 
L 547.382742 360.16964 
L 549.64 359.793216 
L 549.64 359.793216 
" style="fill:none;stroke:#545454;stroke-linecap:square;stroke-width:2;"/>
   </g>
   <g id="line2d_13">
    <path clip-path="url(#pc9523a666b)" d="M 67.425 209.2026 
L 71.327095 188.0542 
L 75.229191 211.6428 
L 79.131286 246.619 
L 83.033382 269.3942 
L 86.935477 285.6622 
L 90.837573 285.6622 
L 94.739668 282.4086 
L 98.641764 273.4612 
L 102.543859 289.7292 
L 106.445955 277.5282 
L 110.34805 279.9684 
L 114.250146 259.6334 
L 118.152241 307.624 
L 122.054337 280.7818 
L 125.956432 301.1168 
L 129.858527 310.8776 
L 133.760623 277.5282 
L 137.662718 268.5808 
L 141.564814 264.5138 
L 145.466909 286.4756 
L 149.369005 286.4756 
L 153.2711 271.021 
L 157.173196 295.423 
L 161.075291 309.2508 
L 164.977387 294.6096 
L 168.879482 288.9158 
L 172.781578 303.557 
L 176.683673 284.8488 
L 180.585769 290.5426 
L 184.487864 274.2746 
L 188.389959 259.6334 
L 192.292055 265.3272 
L 196.19415 259.6334 
L 200.096246 245.8056 
L 203.998341 261.2602 
L 207.900437 233.6046 
L 211.802532 250.686 
L 215.704628 257.1932 
L 219.606723 261.2602 
L 223.508819 255.5664 
L 227.410914 232.7912 
L 231.31301 261.2602 
L 235.215105 258.0066 
L 239.117201 243.3654 
L 243.019296 235.2314 
L 246.921391 253.9396 
L 250.823487 253.9396 
L 254.725582 259.6334 
L 258.627678 249.0592 
L 262.529773 253.1262 
L 266.431869 266.954 
L 270.333964 266.954 
L 274.23606 266.1406 
L 278.138155 266.954 
L 282.040251 281.5952 
L 285.942346 271.8344 
L 289.844442 274.2746 
L 293.746537 277.5282 
L 297.648633 264.5138 
L 301.550728 263.7004 
L 305.452823 283.222 
L 309.354919 271.8344 
L 313.257014 281.5952 
L 317.15911 293.7962 
L 321.061205 297.0498 
L 324.963301 282.4086 
L 328.865396 285.6622 
L 332.767492 292.9828 
L 336.669587 304.3704 
L 340.571683 306.8106 
L 344.473778 310.0642 
L 348.375874 304.3704 
L 352.277969 306.8106 
L 356.180065 301.9302 
L 360.08216 314.9446 
L 367.886351 321.4518 
L 371.788446 332.026 
L 375.690542 329.5858 
L 379.592637 323.892 
L 383.494733 320.6384 
L 387.396828 310.0642 
L 391.298924 302.7436 
L 395.201019 302.7436 
L 399.103115 306.8106 
L 403.00521 317.3848 
L 406.907306 323.892 
L 410.809401 332.026 
L 414.711497 324.7054 
L 418.613592 326.3322 
L 422.515687 304.3704 
L 426.417783 309.2508 
L 430.319878 301.9302 
L 434.221974 309.2508 
L 438.124069 307.624 
L 445.92826 309.2508 
L 449.830356 300.3034 
L 453.732451 311.691 
L 457.634547 312.5044 
L 461.536642 310.8776 
L 465.438738 314.9446 
L 469.340833 314.9446 
L 473.242929 319.825 
L 477.145024 319.825 
L 481.047119 326.3322 
L 484.949215 323.892 
L 488.85131 317.3848 
L 492.753406 312.5044 
L 496.655501 309.2508 
L 500.557597 318.1982 
L 504.459692 309.2508 
L 508.361788 308.4374 
L 512.263883 312.5044 
L 516.165979 311.691 
L 520.068074 310.0642 
L 523.97017 319.0116 
L 527.872265 315.758 
L 531.774361 316.5714 
L 535.676456 319.825 
L 539.578551 321.4518 
L 543.480647 320.6384 
L 547.382742 322.2652 
L 549.64 322.73573 
L 549.64 322.73573 
" style="fill:none;stroke:#0000ff;stroke-linecap:square;stroke-opacity:0.5;"/>
   </g>
   <g id="line2d_14">
    <path clip-path="url(#pc9523a666b)" d="M 75.229191 224.98256 
L 79.131286 240.27448 
L 83.033382 259.79608 
L 86.935477 273.94924 
L 90.837573 279.31768 
L 94.739668 283.38468 
L 98.641764 281.75788 
L 102.543859 280.61912 
L 106.445955 276.06408 
L 110.34805 282.89664 
L 114.250146 281.10716 
L 118.152241 285.82488 
L 122.054337 292.00672 
L 125.956432 295.58568 
L 129.858527 287.77704 
L 133.760623 284.52344 
L 137.662718 281.5952 
L 141.564814 276.7148 
L 145.466909 275.41336 
L 149.369005 280.7818 
L 153.2711 289.7292 
L 157.173196 291.356 
L 161.075291 291.84404 
L 164.977387 298.35124 
L 168.879482 296.2364 
L 172.781578 292.49476 
L 176.683673 288.42776 
L 180.585769 282.57128 
L 184.487864 274.92532 
L 188.389959 269.88224 
L 192.292055 260.93484 
L 196.19415 258.33196 
L 200.096246 253.1262 
L 203.998341 250.19796 
L 207.900437 249.70992 
L 211.802532 252.80084 
L 215.704628 251.66208 
L 219.606723 251.4994 
L 223.508819 253.61424 
L 227.410914 253.77692 
L 231.31301 250.19796 
L 235.215105 246.13096 
L 239.117201 250.36064 
L 243.019296 248.89652 
L 246.921391 249.22188 
L 250.823487 250.36064 
L 254.725582 253.9396 
L 262.529773 259.14536 
L 266.431869 260.4468 
L 270.333964 264.02576 
L 274.23606 269.71956 
L 278.138155 270.69564 
L 282.040251 272.15976 
L 285.942346 274.43728 
L 289.844442 273.94924 
L 293.746537 270.37028 
L 297.648633 272.6478 
L 301.550728 272.15976 
L 305.452823 272.97316 
L 309.354919 278.82964 
L 313.257014 285.49952 
L 317.15911 285.33684 
L 321.061205 288.1024 
L 324.963301 290.37992 
L 328.865396 292.49476 
L 332.767492 294.44692 
L 336.669587 299.97804 
L 340.571683 303.71968 
L 344.473778 306.48524 
L 348.375874 305.9972 
L 356.180065 309.2508 
L 360.08216 312.66708 
L 363.984255 317.71016 
L 367.886351 323.24128 
L 371.788446 325.03076 
L 375.690542 325.5188 
L 379.592637 323.24128 
L 383.494733 317.3848 
L 387.396828 312.01636 
L 391.298924 308.60008 
L 395.201019 307.94936 
L 399.103115 310.71492 
L 403.00521 316.5714 
L 406.907306 320.96376 
L 410.809401 324.86808 
L 414.711497 322.2652 
L 418.613592 319.33696 
L 422.515687 313.3178 
L 426.417783 310.22688 
L 430.319878 306.48524 
L 434.221974 307.29864 
L 438.124069 307.29864 
L 442.026165 306.97328 
L 445.92826 307.46132 
L 449.830356 308.4374 
L 453.732451 308.92544 
L 457.634547 310.0642 
L 461.536642 312.99244 
L 465.438738 314.61924 
L 469.340833 316.08336 
L 473.242929 319.17428 
L 477.145024 320.96376 
L 481.047119 321.4518 
L 484.949215 319.98768 
L 488.85131 317.87284 
L 492.753406 316.24604 
L 496.655501 313.3178 
L 500.557597 311.52832 
L 504.459692 311.52832 
L 508.361788 312.01636 
L 512.263883 310.38956 
L 516.165979 312.34172 
L 520.068074 313.80584 
L 523.97017 314.61924 
L 527.872265 316.24604 
L 531.774361 318.52356 
L 535.676456 318.84892 
L 543.480647 321.4518 
L 547.382742 322.2652 
L 549.64 322.547518 
L 549.64 322.547518 
" style="fill:none;stroke:#0000ff;stroke-linecap:square;stroke-width:2;"/>
   </g>
   <g id="line2d_15">
    <path clip-path="url(#pc9523a666b)" d="M 67.425 166.9058 
L 71.327095 187.2408 
L 75.229191 200.2552 
L 79.131286 201.882 
L 83.033382 209.2026 
L 86.935477 177.48 
L 90.837573 174.2264 
L 94.739668 174.2264 
L 98.641764 145.7574 
L 102.543859 149.011 
L 106.445955 142.5038 
L 110.34805 120.542 
L 114.250146 119.7286 
L 118.152241 130.3028 
L 122.054337 132.743 
L 125.956432 144.944 
L 129.858527 145.7574 
L 133.760623 139.2502 
L 137.662718 153.078 
L 141.564814 157.145 
L 145.466909 153.8914 
L 149.369005 154.7048 
L 153.2711 168.5326 
L 157.173196 178.2934 
L 161.075291 191.3078 
L 164.977387 179.1068 
L 168.879482 190.4944 
L 172.781578 173.413 
L 176.683673 174.2264 
L 180.585769 188.0542 
L 184.487864 198.6284 
L 188.389959 201.882 
L 192.292055 193.748 
L 196.19415 223.0304 
L 200.096246 227.9108 
L 203.998341 203.5088 
L 207.900437 205.1356 
L 211.802532 236.8582 
L 215.704628 247.4324 
L 219.606723 247.4324 
L 223.508819 243.3654 
L 227.410914 228.7242 
L 231.31301 237.6716 
L 235.215105 253.1262 
L 239.117201 263.7004 
L 243.019296 271.021 
L 246.921391 264.5138 
L 250.823487 286.4756 
L 254.725582 275.9014 
L 258.627678 258.82 
L 262.529773 257.1932 
L 266.431869 271.8344 
L 270.333964 258.82 
L 274.23606 275.9014 
L 278.138155 286.4756 
L 282.040251 308.4374 
L 285.942346 305.1838 
L 289.844442 316.5714 
L 293.746537 306.8106 
L 297.648633 299.49 
L 301.550728 310.0642 
L 305.452823 294.6096 
L 309.354919 314.9446 
L 313.257014 312.5044 
L 317.15911 305.9972 
L 321.061205 312.5044 
L 324.963301 298.6766 
L 328.865396 314.9446 
L 332.767492 313.3178 
L 336.669587 292.1694 
L 340.571683 292.9828 
L 344.473778 314.1312 
L 348.375874 294.6096 
L 352.277969 295.423 
L 356.180065 318.1982 
L 360.08216 302.7436 
L 363.984255 304.3704 
L 367.886351 321.4518 
L 371.788446 321.4518 
L 375.690542 331.2126 
L 379.592637 344.227 
L 383.494733 343.4136 
L 387.396828 332.8394 
L 391.298924 340.9734 
L 395.201019 343.4136 
L 399.103115 353.1744 
L 403.00521 355.6146 
L 410.809401 352.361 
L 414.711497 357.2414 
L 418.613592 357.2414 
L 422.515687 345.8538 
L 426.417783 349.9208 
L 430.319878 352.361 
L 434.221974 342.6002 
L 438.124069 331.2126 
L 442.026165 332.026 
L 445.92826 333.6528 
L 449.830356 327.1456 
L 453.732451 325.5188 
L 457.634547 327.1456 
L 461.536642 321.4518 
L 465.438738 325.5188 
L 469.340833 332.026 
L 473.242929 335.2796 
L 477.145024 344.227 
L 484.949215 342.6002 
L 488.85131 349.1074 
L 492.753406 340.9734 
L 496.655501 350.7342 
L 500.557597 346.6672 
L 504.459692 337.7198 
L 508.361788 333.6528 
L 512.263883 340.9734 
L 516.165979 336.093 
L 520.068074 344.227 
L 523.97017 337.7198 
L 527.872265 332.8394 
L 531.774361 337.7198 
L 535.676456 336.9064 
L 539.578551 340.16 
L 543.480647 337.7198 
L 547.382742 329.5858 
L 549.64 325.821559 
L 549.64 325.821559 
" style="fill:none;stroke:#00d992;stroke-linecap:square;stroke-opacity:0.5;"/>
   </g>
   <g id="line2d_16">
    <path clip-path="url(#pc9523a666b)" d="M 75.229191 193.09728 
L 79.131286 195.21212 
L 83.033382 192.60924 
L 86.935477 187.40348 
L 90.837573 176.17856 
L 94.739668 164.14024 
L 98.641764 157.145 
L 106.445955 135.50856 
L 110.34805 132.41764 
L 114.250146 129.16404 
L 118.152241 129.65208 
L 122.054337 134.69516 
L 125.956432 138.59948 
L 129.858527 143.15452 
L 133.760623 148.03492 
L 141.564814 151.61388 
L 145.466909 157.47036 
L 149.369005 162.51344 
L 153.2711 169.346 
L 157.173196 174.38908 
L 161.075291 181.547 
L 164.977387 182.52308 
L 168.879482 181.70968 
L 172.781578 181.05896 
L 176.683673 184.96328 
L 180.585769 187.2408 
L 184.487864 191.3078 
L 188.389959 201.0686 
L 192.292055 209.03992 
L 196.19415 210.016 
L 200.096246 210.66672 
L 203.998341 219.28876 
L 207.900437 224.16916 
L 211.802532 228.07348 
L 215.704628 236.0448 
L 219.606723 240.76252 
L 223.508819 240.9252 
L 227.410914 242.06396 
L 231.31301 245.31756 
L 235.215105 250.84868 
L 239.117201 258.0066 
L 243.019296 267.7674 
L 246.921391 272.32244 
L 250.823487 271.34636 
L 254.725582 268.5808 
L 258.627678 270.04492 
L 262.529773 264.5138 
L 266.431869 264.5138 
L 270.333964 270.04492 
L 274.23606 280.29376 
L 278.138155 286.96364 
L 282.040251 298.51392 
L 285.942346 304.69576 
L 289.844442 307.29864 
L 293.746537 307.624 
L 297.648633 305.50916 
L 301.550728 305.1838 
L 305.452823 306.32256 
L 309.354919 307.624 
L 313.257014 308.11204 
L 317.15911 308.92544 
L 321.061205 308.92544 
L 324.963301 309.08812 
L 328.865396 306.32256 
L 332.767492 302.41824 
L 336.669587 305.50916 
L 340.571683 301.44216 
L 344.473778 297.8632 
L 348.375874 303.06896 
L 352.277969 305.02112 
L 356.180065 303.06896 
L 363.984255 313.64316 
L 367.886351 316.24604 
L 371.788446 324.54272 
L 375.690542 332.35136 
L 379.592637 334.62888 
L 383.494733 338.5332 
L 387.396828 340.9734 
L 391.298924 342.76288 
L 395.201019 345.20308 
L 399.103115 349.43276 
L 403.00521 351.71028 
L 406.907306 354.47584 
L 410.809401 355.28924 
L 414.711497 353.33708 
L 418.613592 352.52368 
L 422.515687 352.52368 
L 426.417783 349.59544 
L 430.319878 344.38968 
L 434.221974 341.62412 
L 438.124069 338.37052 
L 442.026165 333.32744 
L 445.92826 329.91116 
L 449.830356 329.09776 
L 453.732451 326.98292 
L 457.634547 325.35612 
L 461.536642 326.3322 
L 465.438738 328.28436 
L 469.340833 331.70064 
L 473.242929 336.093 
L 481.047119 342.92556 
L 484.949215 344.06432 
L 488.85131 345.36576 
L 492.753406 346.01648 
L 496.655501 345.0404 
L 500.557597 341.94948 
L 504.459692 341.94948 
L 508.361788 339.02124 
L 512.263883 338.5332 
L 516.165979 338.5332 
L 520.068074 338.37052 
L 523.97017 337.7198 
L 527.872265 337.88248 
L 531.774361 337.06908 
L 535.676456 337.06908 
L 539.578551 336.41836 
L 543.480647 333.49012 
L 547.382742 330.72456 
L 549.64 328.560122 
L 549.64 328.560122 
" style="fill:none;stroke:#00d992;stroke-linecap:square;stroke-width:2;"/>
   </g>
   <g id="line2d_17">
    <path clip-path="url(#pc9523a666b)" d="M 67.425 196.1882 
L 71.327095 166.0924 
L 75.229191 186.4274 
L 79.131286 243.3654 
L 83.033382 250.686 
L 86.935477 259.6334 
L 90.837573 284.8488 
L 94.739668 236.8582 
L 98.641764 241.7386 
L 102.543859 240.1118 
L 106.445955 226.284 
L 110.34805 227.9108 
L 114.250146 228.7242 
L 118.152241 244.1788 
L 122.054337 241.7386 
L 125.956432 210.8294 
L 129.858527 223.0304 
L 133.760623 237.6716 
L 137.662718 225.4706 
L 141.564814 247.4324 
L 145.466909 230.351 
L 149.369005 224.6572 
L 153.2711 223.0304 
L 157.173196 225.4706 
L 161.075291 223.8438 
L 164.977387 216.5232 
L 168.879482 197.0016 
L 172.781578 210.8294 
L 176.683673 236.8582 
L 180.585769 228.7242 
L 184.487864 218.15 
L 188.389959 215.7098 
L 192.292055 200.2552 
L 196.19415 210.016 
L 200.096246 193.748 
L 203.998341 204.3222 
L 207.900437 205.1356 
L 211.802532 182.3604 
L 215.704628 182.3604 
L 223.508819 195.3748 
L 227.410914 188.0542 
L 231.31301 175.0398 
L 235.215105 193.748 
L 239.117201 223.8438 
L 243.019296 223.8438 
L 246.921391 214.083 
L 250.823487 212.4562 
L 254.725582 223.8438 
L 258.627678 216.5232 
L 262.529773 228.7242 
L 266.431869 221.4036 
L 270.333964 238.485 
L 274.23606 241.7386 
L 278.138155 230.351 
L 282.040251 240.1118 
L 285.942346 237.6716 
L 289.844442 231.9778 
L 293.746537 235.2314 
L 297.648633 231.1644 
L 301.550728 232.7912 
L 305.452823 236.8582 
L 309.354919 230.351 
L 313.257014 234.418 
L 317.15911 228.7242 
L 321.061205 232.7912 
L 324.963301 240.1118 
L 328.865396 246.619 
L 332.767492 249.0592 
L 336.669587 240.9252 
L 340.571683 250.686 
L 344.473778 246.619 
L 348.375874 258.82 
L 352.277969 272.6478 
L 356.180065 258.82 
L 360.08216 259.6334 
L 363.984255 256.3798 
L 367.886351 266.1406 
L 371.788446 268.5808 
L 375.690542 260.4468 
L 379.592637 262.0736 
L 383.494733 267.7674 
L 387.396828 275.088 
L 391.298924 271.8344 
L 395.201019 271.021 
L 399.103115 282.4086 
L 403.00521 278.3416 
L 406.907306 292.9828 
L 410.809401 290.5426 
L 414.711497 302.7436 
L 418.613592 299.49 
L 422.515687 295.423 
L 426.417783 299.49 
L 430.319878 290.5426 
L 434.221974 297.8632 
L 438.124069 304.3704 
L 442.026165 305.1838 
L 445.92826 309.2508 
L 449.830356 306.8106 
L 453.732451 316.5714 
L 457.634547 305.9972 
L 461.536642 317.3848 
L 465.438738 310.8776 
L 469.340833 314.9446 
L 481.047119 324.7054 
L 484.949215 329.5858 
L 488.85131 329.5858 
L 492.753406 328.7724 
L 496.655501 334.4662 
L 500.557597 338.5332 
L 504.459692 341.7868 
L 508.361788 332.026 
L 512.263883 331.2126 
L 516.165979 326.3322 
L 520.068074 323.0786 
L 523.97017 315.758 
L 527.872265 324.7054 
L 531.774361 327.959 
L 535.676456 316.5714 
L 539.578551 323.0786 
L 543.480647 327.1456 
L 547.382742 324.7054 
L 549.64 327.999111 
L 549.64 327.999111 
" style="fill:none;stroke:#0048db;stroke-linecap:square;stroke-opacity:0.5;"/>
   </g>
   <g id="line2d_18">
    <path clip-path="url(#pc9523a666b)" d="M 75.229191 208.55188 
L 79.131286 221.24092 
L 83.033382 244.9922 
L 86.935477 255.07836 
L 90.837573 254.753 
L 94.739668 252.63816 
L 98.641764 245.96828 
L 102.543859 234.58068 
L 106.445955 232.95388 
L 110.34805 233.44192 
L 114.250146 233.76728 
L 118.152241 230.67636 
L 122.054337 229.70028 
L 125.956432 231.48976 
L 129.858527 227.74812 
L 133.760623 228.88688 
L 137.662718 232.7912 
L 141.564814 233.11656 
L 145.466909 230.18832 
L 149.369005 230.18832 
L 153.2711 225.4706 
L 157.173196 222.70504 
L 161.075291 217.17392 
L 164.977387 214.73372 
L 168.879482 217.01124 
L 172.781578 217.98732 
L 176.683673 218.31268 
L 180.585769 222.05432 
L 184.487864 219.93948 
L 188.389959 214.57104 
L 192.292055 207.5758 
L 196.19415 204.81024 
L 200.096246 202.6954 
L 203.998341 199.11644 
L 207.900437 193.58532 
L 211.802532 192.60924 
L 215.704628 190.81976 
L 219.606723 187.40348 
L 223.508819 185.93936 
L 227.410914 188.21688 
L 231.31301 195.21212 
L 235.215105 200.90592 
L 239.117201 206.11168 
L 243.019296 213.59496 
L 246.921391 219.61412 
L 250.823487 218.15 
L 254.725582 219.12608 
L 258.627678 220.5902 
L 262.529773 225.79596 
L 266.431869 229.37492 
L 270.333964 232.14048 
L 274.23606 234.418 
L 278.138155 237.6716 
L 285.942346 235.06872 
L 289.844442 235.2314 
L 293.746537 233.76728 
L 297.648633 233.6046 
L 301.550728 233.27924 
L 305.452823 233.11656 
L 309.354919 232.62852 
L 313.257014 232.62852 
L 317.15911 233.27924 
L 321.061205 236.53284 
L 324.963301 239.46108 
L 328.865396 241.90128 
L 332.767492 245.48024 
L 336.669587 246.78168 
L 340.571683 249.22188 
L 344.473778 253.9396 
L 348.375874 257.51856 
L 352.277969 259.30804 
L 356.180065 261.2602 
L 360.08216 262.72432 
L 363.984255 261.91092 
L 367.886351 262.23628 
L 371.788446 262.72432 
L 375.690542 265.00184 
L 379.592637 266.79132 
L 383.494733 267.44204 
L 387.396828 269.55688 
L 391.298924 273.62388 
L 395.201019 275.73872 
L 399.103115 279.31768 
L 403.00521 283.05932 
L 406.907306 289.40384 
L 414.711497 296.2364 
L 418.613592 297.53784 
L 422.515687 297.53784 
L 426.417783 296.56176 
L 430.319878 297.53784 
L 438.124069 301.44216 
L 442.026165 304.69576 
L 445.92826 308.4374 
L 449.830356 308.76276 
L 453.732451 311.20296 
L 457.634547 311.52832 
L 461.536642 313.15512 
L 465.438738 313.48048 
L 469.340833 316.5714 
L 473.242929 318.03552 
L 477.145024 321.77716 
L 481.047119 324.7054 
L 484.949215 326.82024 
L 488.85131 329.42312 
L 492.753406 332.18868 
L 496.655501 334.62888 
L 504.459692 335.60496 
L 508.361788 333.97816 
L 512.263883 330.88724 
L 516.165979 325.68148 
L 520.068074 324.21736 
L 523.97017 323.56664 
L 527.872265 321.61448 
L 531.774361 321.61448 
L 535.676456 323.892 
L 539.578551 323.892 
L 543.480647 324.38004 
L 547.382742 326.3322 
L 549.64 326.520412 
L 549.64 326.520412 
" style="fill:none;stroke:#0048db;stroke-linecap:square;stroke-width:2;"/>
   </g>
   <g id="line2d_19">
    <path clip-path="url(#pc9523a666b)" d="M 67.425 170.9728 
L 71.327095 162.0254 
L 75.229191 180.7336 
L 79.131286 202.6954 
L 83.033382 223.0304 
L 86.935477 227.0974 
L 90.837573 242.552 
L 94.739668 246.619 
L 98.641764 241.7386 
L 102.543859 239.2984 
L 106.445955 231.9778 
L 110.34805 247.4324 
L 114.250146 249.0592 
L 118.152241 257.1932 
L 122.054337 275.9014 
L 125.956432 231.1644 
L 129.858527 251.4994 
L 133.760623 248.2458 
L 137.662718 231.1644 
L 141.564814 260.4468 
L 145.466909 231.1644 
L 149.369005 240.1118 
L 153.2711 266.1406 
L 157.173196 256.3798 
L 161.075291 231.1644 
L 164.977387 239.2984 
L 168.879482 255.5664 
L 172.781578 243.3654 
L 176.683673 240.9252 
L 180.585769 236.0448 
L 184.487864 224.6572 
L 188.389959 222.217 
L 192.292055 239.2984 
L 196.19415 236.0448 
L 200.096246 244.1788 
L 203.998341 242.552 
L 207.900437 247.4324 
L 211.802532 276.7148 
L 215.704628 259.6334 
L 219.606723 267.7674 
L 223.508819 263.7004 
L 227.410914 251.4994 
L 231.31301 245.8056 
L 235.215105 248.2458 
L 239.117201 229.5376 
L 243.019296 250.686 
L 246.921391 247.4324 
L 250.823487 249.0592 
L 254.725582 251.4994 
L 258.627678 240.1118 
L 262.529773 251.4994 
L 266.431869 261.2602 
L 270.333964 279.9684 
L 274.23606 271.021 
L 278.138155 276.7148 
L 285.942346 275.088 
L 289.844442 275.088 
L 293.746537 274.2746 
L 297.648633 271.8344 
L 301.550728 278.3416 
L 305.452823 293.7962 
L 309.354919 298.6766 
L 313.257014 287.289 
L 317.15911 300.3034 
L 321.061205 295.423 
L 324.963301 298.6766 
L 328.865396 303.557 
L 332.767492 309.2508 
L 336.669587 319.825 
L 340.571683 319.825 
L 344.473778 320.6384 
L 348.375874 326.3322 
L 352.277969 309.2508 
L 356.180065 303.557 
L 360.08216 300.3034 
L 363.984255 292.9828 
L 367.886351 307.624 
L 371.788446 298.6766 
L 375.690542 281.5952 
L 379.592637 303.557 
L 383.494733 308.4374 
L 387.396828 311.691 
L 391.298924 330.3992 
L 395.201019 336.093 
L 399.103115 343.4136 
L 403.00521 332.8394 
L 406.907306 332.8394 
L 410.809401 332.026 
L 414.711497 327.959 
L 418.613592 332.026 
L 422.515687 332.8394 
L 426.417783 326.3322 
L 430.319878 323.892 
L 434.221974 318.1982 
L 438.124069 328.7724 
L 442.026165 345.0404 
L 445.92826 340.16 
L 449.830356 332.8394 
L 453.732451 340.16 
L 457.634547 329.5858 
L 461.536642 310.8776 
L 465.438738 314.9446 
L 473.242929 314.9446 
L 477.145024 315.758 
L 481.047119 326.3322 
L 484.949215 332.026 
L 488.85131 342.6002 
L 492.753406 327.1456 
L 496.655501 327.959 
L 500.557597 327.959 
L 504.459692 319.825 
L 508.361788 327.1456 
L 512.263883 330.3992 
L 516.165979 324.7054 
L 520.068074 322.2652 
L 523.97017 320.6384 
L 527.872265 321.4518 
L 531.774361 318.1982 
L 539.578551 321.4518 
L 543.480647 325.5188 
L 547.382742 326.3322 
L 549.64 325.39114 
L 549.64 325.39114 
" style="fill:none;stroke:#0091b6;stroke-linecap:square;stroke-opacity:0.5;"/>
   </g>
   <g id="line2d_20">
    <path clip-path="url(#pc9523a666b)" d="M 75.229191 187.89152 
L 79.131286 199.11644 
L 83.033382 215.22176 
L 86.935477 228.39884 
L 90.837573 236.20748 
L 94.739668 239.46108 
L 102.543859 241.41324 
L 106.445955 241.90128 
L 110.34805 244.9922 
L 114.250146 252.3128 
L 118.152241 252.15012 
L 122.054337 252.96352 
L 125.956432 252.80084 
L 129.858527 247.59508 
L 133.760623 244.50416 
L 137.662718 244.50416 
L 141.564814 242.22664 
L 145.466909 245.8056 
L 149.369005 250.84868 
L 153.2711 244.9922 
L 157.173196 246.619 
L 161.075291 249.70992 
L 164.977387 245.15488 
L 168.879482 242.06396 
L 172.781578 243.04004 
L 176.683673 240.1118 
L 180.585769 233.44192 
L 184.487864 232.62852 
L 188.389959 231.65244 
L 192.292055 233.27924 
L 196.19415 236.8582 
L 200.096246 241.90128 
L 203.998341 249.38456 
L 211.802532 258.82 
L 215.704628 263.04968 
L 219.606723 263.86308 
L 223.508819 257.68124 
L 227.410914 255.40372 
L 231.31301 247.75776 
L 235.215105 245.15488 
L 239.117201 244.34148 
L 246.921391 245.64292 
L 250.823487 247.75776 
L 254.725582 247.92044 
L 258.627678 250.686 
L 262.529773 256.86784 
L 266.431869 260.77216 
L 270.333964 268.09276 
L 274.23606 272.97316 
L 278.138155 275.73872 
L 282.040251 274.76264 
L 285.942346 275.41336 
L 289.844442 274.43728 
L 293.746537 274.92532 
L 297.648633 278.66696 
L 301.550728 283.38468 
L 305.452823 285.98756 
L 309.354919 291.68136 
L 313.257014 295.09764 
L 321.061205 297.0498 
L 324.963301 301.44216 
L 328.865396 305.34648 
L 332.767492 310.22688 
L 340.571683 319.17428 
L 344.473778 319.17428 
L 348.375874 315.92068 
L 352.277969 312.01636 
L 356.180065 306.48524 
L 360.08216 302.7436 
L 363.984255 300.62876 
L 367.886351 296.2364 
L 371.788446 296.88712 
L 375.690542 299.97804 
L 379.592637 300.79144 
L 383.494733 307.13596 
L 387.396828 318.03552 
L 391.298924 326.00684 
L 395.201019 330.88724 
L 399.103115 335.11692 
L 403.00521 335.44228 
L 406.907306 333.81548 
L 410.809401 331.53796 
L 414.711497 331.53796 
L 418.613592 330.23652 
L 422.515687 328.60972 
L 426.417783 326.65756 
L 430.319878 326.00684 
L 434.221974 328.44704 
L 438.124069 331.2126 
L 442.026165 333.00208 
L 445.92826 337.39444 
L 449.830356 337.55712 
L 453.732451 330.72456 
L 457.634547 325.68148 
L 461.536642 322.10252 
L 465.438738 317.05944 
L 469.340833 314.29388 
L 473.242929 317.3848 
L 477.145024 320.80108 
L 481.047119 326.3322 
L 488.85131 331.2126 
L 492.753406 331.53796 
L 496.655501 329.09776 
L 500.557597 326.00684 
L 504.459692 326.65756 
L 508.361788 326.00684 
L 512.263883 324.86808 
L 516.165979 325.03076 
L 520.068074 323.892 
L 523.97017 321.4518 
L 527.872265 320.47572 
L 531.774361 320.31304 
L 539.578551 322.2652 
L 543.480647 323.56664 
L 547.382742 323.40396 
L 549.64 322.557006 
L 549.64 322.557006 
" style="fill:none;stroke:#0091b6;stroke-linecap:square;stroke-width:2;"/>
   </g>
   <g id="patch_3">
    <path d="M 67.425 502.84 
L 67.425 14.8 
" style="fill:none;stroke:#000000;stroke-linecap:square;stroke-linejoin:miter;stroke-width:0.8;"/>
   </g>
   <g id="patch_4">
    <path d="M 67.425 502.84 
L 360.08216 502.84 
" style="fill:none;stroke:#000000;stroke-linecap:square;stroke-linejoin:miter;stroke-width:0.8;"/>
   </g>
   <g id="text_12">
    <!-- random -->
    <defs>
     <path d="M 59.078125 45.609375 
Q 62.40625 50.6875 66.96875 53.34375 
Q 71.53125 56 77 56 
Q 86.421875 56 91.359375 50.1875 
Q 96.296875 44.390625 96.296875 33.296875 
L 96.296875 0 
L 78.71875 0 
L 78.71875 28.515625 
Q 78.765625 29.15625 78.78125 29.828125 
Q 78.8125 30.515625 78.8125 31.78125 
Q 78.8125 37.59375 77.09375 40.203125 
Q 75.390625 42.828125 71.578125 42.828125 
Q 66.609375 42.828125 63.890625 38.71875 
Q 61.1875 34.625 61.078125 26.859375 
L 61.078125 0 
L 43.5 0 
L 43.5 28.515625 
Q 43.5 37.59375 41.9375 40.203125 
Q 40.375 42.828125 36.375 42.828125 
Q 31.34375 42.828125 28.609375 38.703125 
Q 25.875 34.578125 25.875 26.90625 
L 25.875 0 
L 8.296875 0 
L 8.296875 54.6875 
L 25.875 54.6875 
L 25.875 46.6875 
Q 29.109375 51.3125 33.28125 53.65625 
Q 37.453125 56 42.484375 56 
Q 48.140625 56 52.484375 53.265625 
Q 56.84375 50.53125 59.078125 45.609375 
z
" id="DejaVuSans-Bold-109"/>
    </defs>
    <g style="fill:#545454;" transform="translate(371.788446 328.28436)scale(0.14 -0.14)">
     <use xlink:href="#DejaVuSans-Bold-114"/>
     <use x="49.316406" xlink:href="#DejaVuSans-Bold-97"/>
     <use x="116.796875" xlink:href="#DejaVuSans-Bold-110"/>
     <use x="187.988281" xlink:href="#DejaVuSans-Bold-100"/>
     <use x="259.570312" xlink:href="#DejaVuSans-Bold-111"/>
     <use x="328.271484" xlink:href="#DejaVuSans-Bold-109"/>
    </g>
   </g>
   <g id="text_13">
    <!-- uncertainty, k=1 -->
    <defs>
     <path d="M 7.8125 21.296875 
L 7.8125 54.6875 
L 25.390625 54.6875 
L 25.390625 49.21875 
Q 25.390625 44.78125 25.34375 38.0625 
Q 25.296875 31.34375 25.296875 29.109375 
Q 25.296875 22.515625 25.640625 19.609375 
Q 25.984375 16.703125 26.8125 15.375 
Q 27.875 13.671875 29.609375 12.734375 
Q 31.34375 11.8125 33.59375 11.8125 
Q 39.0625 11.8125 42.1875 16.015625 
Q 45.3125 20.21875 45.3125 27.6875 
L 45.3125 54.6875 
L 62.796875 54.6875 
L 62.796875 0 
L 45.3125 0 
L 45.3125 7.90625 
Q 41.359375 3.125 36.9375 0.84375 
Q 32.515625 -1.421875 27.203125 -1.421875 
Q 17.71875 -1.421875 12.765625 4.390625 
Q 7.8125 10.203125 7.8125 21.296875 
z
" id="DejaVuSans-Bold-117"/>
     <path d="M 10.203125 18.890625 
L 27.78125 18.890625 
L 27.78125 4 
L 15.71875 -14.203125 
L 5.328125 -14.203125 
L 10.203125 4 
z
" id="DejaVuSans-Bold-44"/>
     <path d="M 8.40625 75.984375 
L 25.875 75.984375 
L 25.875 34.625 
L 46 54.6875 
L 66.3125 54.6875 
L 39.59375 29.59375 
L 68.40625 0 
L 47.21875 0 
L 25.875 22.796875 
L 25.875 0 
L 8.40625 0 
z
" id="DejaVuSans-Bold-107"/>
     <path d="M 10.59375 48.1875 
L 73.1875 48.1875 
L 73.1875 36.71875 
L 10.59375 36.71875 
z
M 10.59375 25.984375 
L 73.1875 25.984375 
L 73.1875 14.40625 
L 10.59375 14.40625 
z
" id="DejaVuSans-Bold-61"/>
     <path d="M 11.71875 12.984375 
L 28.328125 12.984375 
L 28.328125 60.109375 
L 11.28125 56.59375 
L 11.28125 69.390625 
L 28.21875 72.90625 
L 46.09375 72.90625 
L 46.09375 12.984375 
L 62.703125 12.984375 
L 62.703125 0 
L 11.71875 0 
z
" id="DejaVuSans-Bold-49"/>
    </defs>
    <g style="fill:#0000ff;" transform="translate(371.788446 312.66708)scale(0.14 -0.14)">
     <use xlink:href="#DejaVuSans-Bold-117"/>
     <use x="71.191406" xlink:href="#DejaVuSans-Bold-110"/>
     <use x="142.382812" xlink:href="#DejaVuSans-Bold-99"/>
     <use x="201.660156" xlink:href="#DejaVuSans-Bold-101"/>
     <use x="269.482422" xlink:href="#DejaVuSans-Bold-114"/>
     <use x="318.798828" xlink:href="#DejaVuSans-Bold-116"/>
     <use x="366.601562" xlink:href="#DejaVuSans-Bold-97"/>
     <use x="434.082031" xlink:href="#DejaVuSans-Bold-105"/>
     <use x="468.359375" xlink:href="#DejaVuSans-Bold-110"/>
     <use x="539.550781" xlink:href="#DejaVuSans-Bold-116"/>
     <use x="587.353516" xlink:href="#DejaVuSans-Bold-121"/>
     <use x="652.429688" xlink:href="#DejaVuSans-Bold-44"/>
     <use x="690.417969" xlink:href="#DejaVuSans-Bold-32"/>
     <use x="725.232422" xlink:href="#DejaVuSans-Bold-107"/>
     <use x="791.736328" xlink:href="#DejaVuSans-Bold-61"/>
     <use x="875.525391" xlink:href="#DejaVuSans-Bold-49"/>
    </g>
   </g>
   <g id="text_14">
    <!-- similar, k= -->
    <defs>
     <path d="M 41.609375 37.453125 
Q 45.21875 44.234375 48.09375 46.875 
Q 51.90625 50.4375 57.71875 50.4375 
Q 64.75 50.4375 69.28125 44.921875 
Q 74.125 39.109375 74.125 29.6875 
Q 74.125 20.5625 69.28125 14.359375 
Q 64.984375 8.9375 57.71875 8.9375 
Q 53.953125 8.9375 51.1875 10.5 
Q 48.4375 12.0625 45.75 15.375 
Q 42.875 19.53125 41.703125 22.015625 
Q 38.09375 15.234375 35.203125 12.59375 
Q 31.390625 9.03125 25.59375 9.03125 
Q 18.5625 9.03125 14.015625 14.546875 
Q 9.1875 20.359375 9.1875 29.78125 
Q 9.1875 38.921875 14.015625 45.125 
Q 18.3125 50.53125 25.59375 50.53125 
Q 29.34375 50.53125 32.09375 48.96875 
Q 34.859375 47.40625 37.546875 44.09375 
Q 40.4375 39.9375 41.609375 37.453125 
z
M 25.296875 18.953125 
Q 32.03125 18.953125 37.25 28.8125 
Q 30.609375 40.671875 25.296875 40.671875 
Q 20.90625 40.671875 18.703125 37.59375 
Q 16.3125 34.1875 16.3125 29.78125 
Q 16.3125 25 18.703125 21.96875 
Q 21.09375 18.953125 25.296875 18.953125 
z
M 58.015625 40.53125 
Q 51.265625 40.53125 46.046875 30.671875 
Q 52.6875 18.796875 58.015625 18.796875 
Q 62.40625 18.796875 64.59375 21.875 
Q 67 25.296875 67 29.6875 
Q 67 34.46875 64.59375 37.5 
Q 62.203125 40.53125 58.015625 40.53125 
z
" id="DejaVuSans-Bold-8734"/>
    </defs>
    <g style="fill:#00d992;" transform="translate(371.788446 296.2364)scale(0.14 -0.14)">
     <use xlink:href="#DejaVuSans-Bold-115"/>
     <use x="59.521484" xlink:href="#DejaVuSans-Bold-105"/>
     <use x="93.798828" xlink:href="#DejaVuSans-Bold-109"/>
     <use x="197.998047" xlink:href="#DejaVuSans-Bold-105"/>
     <use x="232.275391" xlink:href="#DejaVuSans-Bold-108"/>
     <use x="266.552734" xlink:href="#DejaVuSans-Bold-97"/>
     <use x="334.033203" xlink:href="#DejaVuSans-Bold-114"/>
     <use x="383.130859" xlink:href="#DejaVuSans-Bold-44"/>
     <use x="421.119141" xlink:href="#DejaVuSans-Bold-32"/>
     <use x="455.933594" xlink:href="#DejaVuSans-Bold-107"/>
     <use x="522.4375" xlink:href="#DejaVuSans-Bold-61"/>
     <use x="606.226562" xlink:href="#DejaVuSans-Bold-8734"/>
    </g>
   </g>
   <g id="text_15">
    <!-- thresholding, k=5 -->
    <defs>
     <path d="M 63.375 33.296875 
L 63.375 0 
L 45.796875 0 
L 45.796875 5.421875 
L 45.796875 25.390625 
Q 45.796875 32.5625 45.484375 35.25 
Q 45.171875 37.9375 44.390625 39.203125 
Q 43.359375 40.921875 41.59375 41.875 
Q 39.84375 42.828125 37.59375 42.828125 
Q 32.125 42.828125 29 38.59375 
Q 25.875 34.375 25.875 26.90625 
L 25.875 0 
L 8.40625 0 
L 8.40625 75.984375 
L 25.875 75.984375 
L 25.875 46.6875 
Q 29.828125 51.46875 34.265625 53.734375 
Q 38.71875 56 44.09375 56 
Q 53.5625 56 58.46875 50.1875 
Q 63.375 44.390625 63.375 33.296875 
z
" id="DejaVuSans-Bold-104"/>
     <path d="M 45.609375 9.28125 
Q 42 4.5 37.640625 2.25 
Q 33.296875 0 27.59375 0 
Q 17.578125 0 11.03125 7.875 
Q 4.5 15.765625 4.5 27.984375 
Q 4.5 40.234375 11.03125 48.0625 
Q 17.578125 55.90625 27.59375 55.90625 
Q 33.296875 55.90625 37.640625 53.65625 
Q 42 51.421875 45.609375 46.578125 
L 45.609375 54.6875 
L 63.1875 54.6875 
L 63.1875 5.515625 
Q 63.1875 -7.671875 54.859375 -14.625 
Q 46.53125 -21.578125 30.71875 -21.578125 
Q 25.59375 -21.578125 20.796875 -20.796875 
Q 16.015625 -20.015625 11.1875 -18.40625 
L 11.1875 -4.78125 
Q 15.765625 -7.421875 20.15625 -8.71875 
Q 24.5625 -10.015625 29 -10.015625 
Q 37.59375 -10.015625 41.59375 -6.25 
Q 45.609375 -2.484375 45.609375 5.515625 
z
M 34.078125 43.3125 
Q 28.65625 43.3125 25.625 39.296875 
Q 22.609375 35.296875 22.609375 27.984375 
Q 22.609375 20.453125 25.53125 16.578125 
Q 28.46875 12.703125 34.078125 12.703125 
Q 39.546875 12.703125 42.578125 16.703125 
Q 45.609375 20.703125 45.609375 27.984375 
Q 45.609375 35.296875 42.578125 39.296875 
Q 39.546875 43.3125 34.078125 43.3125 
z
" id="DejaVuSans-Bold-103"/>
     <path d="M 10.59375 72.90625 
L 57.328125 72.90625 
L 57.328125 59.078125 
L 25.59375 59.078125 
L 25.59375 47.796875 
Q 27.734375 48.390625 29.90625 48.703125 
Q 32.078125 49.03125 34.421875 49.03125 
Q 47.75 49.03125 55.171875 42.359375 
Q 62.59375 35.6875 62.59375 23.78125 
Q 62.59375 11.96875 54.515625 5.265625 
Q 46.4375 -1.421875 32.078125 -1.421875 
Q 25.875 -1.421875 19.796875 -0.21875 
Q 13.71875 0.984375 7.71875 3.421875 
L 7.71875 18.21875 
Q 13.671875 14.796875 19.015625 13.078125 
Q 24.359375 11.375 29.109375 11.375 
Q 35.9375 11.375 39.859375 14.71875 
Q 43.796875 18.0625 43.796875 23.78125 
Q 43.796875 29.546875 39.859375 32.859375 
Q 35.9375 36.1875 29.109375 36.1875 
Q 25.046875 36.1875 20.453125 35.125 
Q 15.875 34.078125 10.59375 31.890625 
z
" id="DejaVuSans-Bold-53"/>
    </defs>
    <g style="fill:#0048db;" transform="translate(371.788446 262.72432)scale(0.14 -0.14)">
     <use xlink:href="#DejaVuSans-Bold-116"/>
     <use x="47.802734" xlink:href="#DejaVuSans-Bold-104"/>
     <use x="118.994141" xlink:href="#DejaVuSans-Bold-114"/>
     <use x="168.310547" xlink:href="#DejaVuSans-Bold-101"/>
     <use x="236.132812" xlink:href="#DejaVuSans-Bold-115"/>
     <use x="295.654297" xlink:href="#DejaVuSans-Bold-104"/>
     <use x="366.845703" xlink:href="#DejaVuSans-Bold-111"/>
     <use x="435.546875" xlink:href="#DejaVuSans-Bold-108"/>
     <use x="469.824219" xlink:href="#DejaVuSans-Bold-100"/>
     <use x="541.40625" xlink:href="#DejaVuSans-Bold-105"/>
     <use x="575.683594" xlink:href="#DejaVuSans-Bold-110"/>
     <use x="646.875" xlink:href="#DejaVuSans-Bold-103"/>
     <use x="718.457031" xlink:href="#DejaVuSans-Bold-44"/>
     <use x="756.445312" xlink:href="#DejaVuSans-Bold-32"/>
     <use x="791.259766" xlink:href="#DejaVuSans-Bold-107"/>
     <use x="857.763672" xlink:href="#DejaVuSans-Bold-61"/>
     <use x="941.552734" xlink:href="#DejaVuSans-Bold-53"/>
    </g>
   </g>
   <g id="text_16">
    <!-- thresholding, k=100 -->
    <defs>
     <path d="M 46 36.53125 
Q 46 50.203125 43.4375 55.78125 
Q 40.875 61.375 34.8125 61.375 
Q 28.765625 61.375 26.171875 55.78125 
Q 23.578125 50.203125 23.578125 36.53125 
Q 23.578125 22.703125 26.171875 17.03125 
Q 28.765625 11.375 34.8125 11.375 
Q 40.828125 11.375 43.40625 17.03125 
Q 46 22.703125 46 36.53125 
z
M 64.796875 36.375 
Q 64.796875 18.265625 56.984375 8.421875 
Q 49.171875 -1.421875 34.8125 -1.421875 
Q 20.40625 -1.421875 12.59375 8.421875 
Q 4.78125 18.265625 4.78125 36.375 
Q 4.78125 54.546875 12.59375 64.375 
Q 20.40625 74.21875 34.8125 74.21875 
Q 49.171875 74.21875 56.984375 64.375 
Q 64.796875 54.546875 64.796875 36.375 
z
" id="DejaVuSans-Bold-48"/>
    </defs>
    <g style="fill:#0091b6;" transform="translate(371.788446 278.3416)scale(0.14 -0.14)">
     <use xlink:href="#DejaVuSans-Bold-116"/>
     <use x="47.802734" xlink:href="#DejaVuSans-Bold-104"/>
     <use x="118.994141" xlink:href="#DejaVuSans-Bold-114"/>
     <use x="168.310547" xlink:href="#DejaVuSans-Bold-101"/>
     <use x="236.132812" xlink:href="#DejaVuSans-Bold-115"/>
     <use x="295.654297" xlink:href="#DejaVuSans-Bold-104"/>
     <use x="366.845703" xlink:href="#DejaVuSans-Bold-111"/>
     <use x="435.546875" xlink:href="#DejaVuSans-Bold-108"/>
     <use x="469.824219" xlink:href="#DejaVuSans-Bold-100"/>
     <use x="541.40625" xlink:href="#DejaVuSans-Bold-105"/>
     <use x="575.683594" xlink:href="#DejaVuSans-Bold-110"/>
     <use x="646.875" xlink:href="#DejaVuSans-Bold-103"/>
     <use x="718.457031" xlink:href="#DejaVuSans-Bold-44"/>
     <use x="756.445312" xlink:href="#DejaVuSans-Bold-32"/>
     <use x="791.259766" xlink:href="#DejaVuSans-Bold-107"/>
     <use x="857.763672" xlink:href="#DejaVuSans-Bold-61"/>
     <use x="941.552734" xlink:href="#DejaVuSans-Bold-49"/>
     <use x="1011.132812" xlink:href="#DejaVuSans-Bold-48"/>
     <use x="1080.712891" xlink:href="#DejaVuSans-Bold-48"/>
    </g>
   </g>
  </g>
 </g>
 <defs>
  <clipPath id="pc9523a666b">
   <rect height="488.04" width="292.65716" x="67.425" y="14.8"/>
  </clipPath>
 </defs>
</svg>
